<?xml version="1.0" encoding="UTF-8" standalone="no"?>
<!-- Created with Inkscape (http://www.inkscape.org/) -->

<svg
   version="1.1"
   id="svg2"
   xml:space="preserve"
   width="545.98669"
   height="104.61333"
   viewBox="0 0 545.98669 104.61333"
   sodipodi:docname="itho-daalderop.svg"
   inkscape:version="1.1.1 (3bf5ae0d25, 2021-09-20)"
   xmlns:inkscape="http://www.inkscape.org/namespaces/inkscape"
   xmlns:sodipodi="http://sodipodi.sourceforge.net/DTD/sodipodi-0.dtd"
   xmlns="http://www.w3.org/2000/svg"
   xmlns:svg="http://www.w3.org/2000/svg"><defs
     id="defs6" /><sodipodi:namedview
     id="namedview4"
     pagecolor="#ffffff"
     bordercolor="#666666"
     borderopacity="1.0"
     inkscape:pageshadow="2"
     inkscape:pageopacity="0.0"
     inkscape:pagecheckerboard="0"
     showgrid="false"
     inkscape:zoom="1.2372096"
     inkscape:cx="273.19541"
     inkscape:cy="52.53758"
     inkscape:window-width="1534"
     inkscape:window-height="1419"
     inkscape:window-x="0"
     inkscape:window-y="19"
     inkscape:window-maximized="1"
     inkscape:current-layer="g8" /><g
     id="g8"
     inkscape:groupmode="layer"
     inkscape:label="ink_ext_XXXXXX"
     transform="matrix(1.3333333,0,0,-1.3333333,0,104.61333)"><path
       d="m 113.077,67.0918 h 7.344 V 40.3523 h -7.344 z m 7.344,4.1367 h -7.344 v 6.0524 h 7.344 v -6.0524"
       style="fill:#283f90;fill-opacity:1;fill-rule:nonzero;stroke:none;stroke-width:0.1"
       id="path12" /><path
       d="m 134.23,67.0914 h 5.379 v -4.9129 h -5.379 v -13.241 c 0,-2.482 0.621,-3.1031 3.103,-3.1031 0.775,0 1.5,0.0523 2.276,0.207 v -5.741 c -1.241,-0.207 -2.845,-0.2578 -4.293,-0.2578 -4.5,0 -8.431,1.034 -8.431,6.3605 v 15.7754 h -4.448 v 4.9129 h 4.448 v 8.0168 h 7.345 v -8.0168"
       style="fill:#283f90;fill-opacity:1;fill-rule:nonzero;stroke:none;stroke-width:0.1"
       id="path14" /><path
       d="m 141.833,77.2809 h 7.345 V 63.3676 h 0.155 c 1.861,3 5.068,4.4476 7.81,4.4476 7.808,0 9.774,-4.3957 9.774,-11.0156 V 40.3523 h -7.345 v 15.1024 c 0,4.3957 -1.292,6.5687 -4.706,6.5687 -3.982,0 -5.688,-2.225 -5.688,-7.6546 V 40.3523 h -7.345 v 36.9286"
       style="fill:#283f90;fill-opacity:1;fill-rule:nonzero;stroke:none;stroke-width:0.1"
       id="path16" /><path
       d="m 182.641,45.1621 c 5.016,0 6.516,4.293 6.516,8.534 0,4.2922 -1.5,8.5852 -6.516,8.5852 -4.965,0 -6.464,-4.293 -6.464,-8.5852 0,-4.241 1.499,-8.534 6.464,-8.534 m 0,22.6539 c 8.43,0 13.861,-5.5859 13.861,-14.1199 0,-8.4824 -5.431,-14.0684 -13.861,-14.0684 -8.379,0 -13.809,5.586 -13.809,14.0684 0,8.534 5.43,14.1199 13.809,14.1199"
       style="fill:#283f90;fill-opacity:1;fill-rule:nonzero;stroke:none;stroke-width:0.1"
       id="path18" /><path
       d="m 215.174,42.3172 c 6.93,0 9.361,5.8445 9.361,11.3789 0,5.5332 -2.431,11.3781 -9.361,11.3781 -6.206,0 -8.741,-5.8449 -8.741,-11.3781 0,-5.5344 2.535,-11.3789 8.741,-11.3789 m 12.62,-1.9649 h -3 v 5.068 h -0.105 c -1.395,-3.4648 -5.636,-5.8441 -9.515,-5.8441 -8.12,0 -12,6.5683 -12,14.1199 0,7.5516 3.88,14.1191 12,14.1191 3.983,0 7.861,-2.0168 9.258,-5.8437 h 0.103 v 15.3086 h 3.259 V 40.3523"
       style="fill:#283f90;fill-opacity:1;fill-rule:nonzero;stroke:none;stroke-width:0.1"
       id="path20" /><path
       d="m 249.775,54.9375 h -0.103 c -0.413,-0.7758 -1.861,-1.0352 -2.74,-1.1898 -5.535,-0.9821 -12.414,-0.9313 -12.414,-6.1555 0,-3.2578 2.896,-5.275 5.949,-5.275 4.964,0 9.36,3.1555 9.308,8.3789 z m -17.378,3.9313 c 0.31,6.2578 4.707,8.9464 10.809,8.9464 4.707,0 9.828,-1.4476 9.828,-8.5859 V 45.0586 c 0,-1.2414 0.62,-1.9652 1.913,-1.9652 0.362,0 0.777,0.1027 1.035,0.207 v -2.741 c -0.723,-0.1551 -1.242,-0.2071 -2.121,-0.2071 -3.309,0 -3.827,1.8622 -3.827,4.6551 h -0.103 c -2.276,-3.466 -4.604,-5.4308 -9.725,-5.4308 -4.912,0 -8.946,2.4308 -8.946,7.8101 0,7.4988 7.292,7.7578 14.326,8.5848 2.689,0.3105 4.189,0.673 4.189,3.6207 0,4.3961 -3.155,5.482 -6.983,5.482 -4.033,0 -7.032,-1.8617 -7.136,-6.2054 h -3.259"
       style="fill:#283f90;fill-opacity:1;fill-rule:nonzero;stroke:none;stroke-width:0.1"
       id="path22" /><path
       d="m 275.326,54.9375 h -0.103 c -0.413,-0.7758 -1.862,-1.0352 -2.743,-1.1898 -5.533,-0.9821 -12.411,-0.9313 -12.411,-6.1555 0,-3.2578 2.895,-5.275 5.948,-5.275 4.964,0 9.361,3.1555 9.309,8.3789 z m -17.379,3.9313 c 0.311,6.2578 4.708,8.9464 10.81,8.9464 4.707,0 9.827,-1.4476 9.827,-8.5859 V 45.0586 c 0,-1.2414 0.621,-1.9652 1.914,-1.9652 0.362,0 0.776,0.1027 1.034,0.207 v -2.741 c -0.722,-0.1551 -1.241,-0.2071 -2.121,-0.2071 -3.308,0 -3.826,1.8622 -3.826,4.6551 h -0.104 c -2.277,-3.466 -4.603,-5.4308 -9.723,-5.4308 -4.914,0 -8.947,2.4308 -8.947,7.8101 0,7.4988 7.293,7.7578 14.326,8.5848 2.689,0.3105 4.189,0.673 4.189,3.6207 0,4.3961 -3.155,5.482 -6.982,5.482 -4.033,0 -7.034,-1.8617 -7.138,-6.2054 h -3.259"
       style="fill:#283f90;fill-opacity:1;fill-rule:nonzero;stroke:none;stroke-width:0.1"
       id="path24" /><path
       d="m 283.861,77.2809 h 3.259 V 40.3523 h -3.259 v 36.9286"
       style="fill:#283f90;fill-opacity:1;fill-rule:nonzero;stroke:none;stroke-width:0.1"
       id="path26" /><path
       d="m 302.376,42.3172 c 6.932,0 9.361,5.8445 9.361,11.3789 0,5.5332 -2.429,11.3781 -9.361,11.3781 -6.206,0 -8.741,-5.8449 -8.741,-11.3781 0,-5.5344 2.535,-11.3789 8.741,-11.3789 m 12.62,-1.9649 h -3 v 5.068 h -0.103 c -1.397,-3.4648 -5.638,-5.8441 -9.517,-5.8441 -8.12,0 -12,6.5683 -12,14.1199 0,7.5516 3.88,14.1191 12,14.1191 3.983,0 7.861,-2.0168 9.258,-5.8437 h 0.103 v 15.3086 h 3.259 V 40.3523"
       style="fill:#283f90;fill-opacity:1;fill-rule:nonzero;stroke:none;stroke-width:0.1"
       id="path28" /><path
       d="m 339.1,55.5574 c -0.157,4.9133 -3.208,9.5172 -8.483,9.5172 -5.328,0 -8.276,-4.6547 -8.792,-9.5172 z m -17.275,-2.7406 c 0.05,-4.7582 2.533,-10.4988 8.792,-10.4988 4.757,0 7.343,2.7918 8.379,6.8265 h 3.257 c -1.396,-6.0519 -4.913,-9.5679 -11.636,-9.5679 -8.483,0 -12.052,6.516 -12.052,14.1191 0,7.0344 3.569,14.1203 12.052,14.1203 8.585,0 11.998,-7.5 11.74,-14.9992 h -20.532"
       style="fill:#283f90;fill-opacity:1;fill-rule:nonzero;stroke:none;stroke-width:0.1"
       id="path30" /><path
       d="m 345.461,67.0398 h 3 V 60.782 h 0.102 c 1.656,4.2922 5.276,6.827 10.085,6.6203 V 64.143 c -5.894,0.3109 -9.928,-4.034 -9.928,-9.5676 V 40.352 h -3.259 v 26.6878"
       style="fill:#283f90;fill-opacity:1;fill-rule:nonzero;stroke:none;stroke-width:0.1"
       id="path32" /><path
       d="m 359.321,53.6961 c 0,-5.6887 3.104,-11.3789 9.363,-11.3789 6.257,0 9.361,5.6902 9.361,11.3789 0,5.6891 -3.104,11.3781 -9.361,11.3781 -6.259,0 -9.363,-5.689 -9.363,-11.3781 m 21.982,0 c 0,-7.6551 -4.448,-14.1199 -12.619,-14.1199 -8.172,0 -12.621,6.4648 -12.621,14.1199 0,7.6539 4.449,14.1203 12.621,14.1203 8.171,0 12.619,-6.4664 12.619,-14.1203"
       style="fill:#283f90;fill-opacity:1;fill-rule:nonzero;stroke:none;stroke-width:0.1"
       id="path34" /><path
       d="m 397.493,65.0742 c -7.189,0 -9.361,-5.3265 -9.361,-11.3781 0,-5.5344 2.43,-11.3789 9.361,-11.3789 6.206,0 8.74,5.8445 8.74,11.3789 0,5.5332 -2.534,11.3781 -8.74,11.3781 m -12.62,1.9664 h 3 v -5.0691 h 0.104 c 1.499,3.6199 5.222,5.8437 9.516,5.8437 8.119,0 12,-6.5675 12,-14.1191 0,-7.5516 -3.881,-14.1199 -12,-14.1199 -3.983,0 -7.861,2.0172 -9.258,5.8441 h -0.103 V 30.4734 h -3.259 v 36.5672"
       style="fill:#283f90;fill-opacity:1;fill-rule:nonzero;stroke:none;stroke-width:0.1"
       id="path36" /><path
       d="m 119.865,7.8125e-4 c -1.903,0 -3.641,0.70624975 -4.946,2.01093875 -1.82,1.82109 -1.82,3.72266 -1.82,7.82617 0,4.10351 0,6.00591 1.82,7.82691 1.305,1.304 3.043,2.011 4.946,2.011 2.365,0 3.94,-0.9238 5.435,-2.3633 l -1.385,-1.3867 c -1.197,1.168 -2.202,1.9023 -4.05,1.9023 -1.278,0 -2.5,-0.4894 -3.342,-1.3593 -1.223,-1.25 -1.359,-2.5809 -1.359,-6.63091 0,-4.04883 0.136,-5.38008 1.359,-6.63008 0.842,-0.86992 2.064,-1.35937 3.342,-1.35937 1.848,0 2.853,0.73359 4.05,1.90234 L 125.3,2.36523 C 123.805,0.924609 122.23,7.8125e-4 119.865,7.8125e-4"
       style="fill:#283f90;fill-opacity:1;fill-rule:nonzero;stroke:none;stroke-width:0.1"
       id="path38" /><path
       d="m 136.847,0.164063 c -2.338,0 -3.397,1.521487 -3.397,3.559377 V 19.5129 h 1.957 V 3.80469 c 0,-1.30391 0.434,-1.95625 1.793,-1.95625 h 1.06 V 0.164063 h -1.413"
       style="fill:#283f90;fill-opacity:1;fill-rule:nonzero;stroke:none;stroke-width:0.1"
       id="path40" /><path
       d="m 145.649,13.5352 h 1.957 V 0.164063 h -1.957 z m 0.978,3.6941 c -0.732,0 -1.33,0.5988 -1.33,1.332 0,0.7348 0.598,1.3313 1.33,1.3313 0.735,0 1.359,-0.5965 1.359,-1.3313 0,-0.7332 -0.624,-1.332 -1.359,-1.332"
       style="fill:#283f90;fill-opacity:1;fill-rule:nonzero;stroke:none;stroke-width:0.1"
       id="path42" /><path
       d="M 173.774,0.164063 V 8.39727 c 0,2.36443 -1.276,3.55973 -3.288,3.55973 -1.957,0 -3.342,-1.2226 -3.342,-3.34177 V 0.164063 h -1.957 V 8.39727 c 0,2.36443 -1.277,3.55973 -3.288,3.55973 -2.011,0 -3.342,-1.2226 -3.342,-3.55973 V 0.164063 h -1.956 V 13.5332 h 1.956 v -1.4668 c 0.951,1.0879 2.282,1.6309 3.777,1.6309 1.848,0 3.287,-0.7618 4.103,-2.2285 1.033,1.4667 2.528,2.2285 4.403,2.2285 1.439,0 2.636,-0.461 3.451,-1.25 0.95,-0.925 1.44,-2.175 1.44,-3.72386 V 0.164063 h -1.957"
       style="fill:#283f90;fill-opacity:1;fill-rule:nonzero;stroke:none;stroke-width:0.1"
       id="path44" /><path
       d="m 192.142,6.33281 h -3.75 c -2.012,0 -2.99,-0.81523 -2.99,-2.36406 0,-1.54883 0.951,-2.2832 3.07,-2.2832 1.141,0 2.147,0.08086 2.99,0.89726 0.462,0.4336 0.68,1.19453 0.68,2.30977 z m 0,-6.168747 V 1.44141 c -1.088,-1.087894 -2.066,-1.44062875 -3.86,-1.44062875 -1.847,0 -2.935,0.35273475 -3.778,1.22265875 -0.651,0.65234 -1.005,1.65742 -1.005,2.71797 0,2.33789 1.63,3.8582 4.62,3.8582 h 4.023 v 1.27656 c 0,1.95703 -0.979,2.93553 -3.425,2.93553 -1.712,0 -2.582,-0.4062 -3.37,-1.5215 l -1.331,1.2235 c 1.195,1.5492 2.554,1.9836 4.728,1.9836 3.587,0 5.354,-1.5489 5.354,-4.45707 V 0.164063 h -1.956"
       style="fill:#283f90;fill-opacity:1;fill-rule:nonzero;stroke:none;stroke-width:0.1"
       id="path46" /><path
       d="m 206.676,0.164063 c -2.282,0 -3.423,1.602347 -3.423,3.586717 V 11.957 h -1.685 v 1.4961 h 1.685 v 4.1848 h 1.957 v -4.1848 h 2.852 V 11.957 H 205.21 V 3.80469 c 0,-1.22266 0.57,-1.95625 1.82,-1.95625 h 1.032 V 0.164063 h -1.386"
       style="fill:#283f90;fill-opacity:1;fill-rule:nonzero;stroke:none;stroke-width:0.1"
       id="path48" /><path
       d="m 223.904,10.0281 c -0.516,1.2239 -1.714,2.011 -3.125,2.011 -1.413,0 -2.608,-0.7871 -3.125,-2.011 -0.3,-0.73318 -0.353,-1.14138 -0.408,-2.22732 h 7.065 c -0.054,1.08594 -0.108,1.49414 -0.407,2.22732 m -6.658,-3.69607 c 0,-2.93476 1.387,-4.61914 3.94,-4.61914 1.548,0 2.446,0.46289 3.505,1.52149 l 1.332,-1.16797 C 224.665,0.707031 223.415,0 221.133,0 c -3.533,0 -5.842,2.12109 -5.842,6.84844 0,4.32146 2.09,6.84886 5.488,6.84886 3.451,0 5.489,-2.5 5.489,-6.468 V 6.33203 h -9.022"
       style="fill:#283f90;fill-opacity:1;fill-rule:nonzero;stroke:none;stroke-width:0.1"
       id="path50" /><path
       d="M 247.732,11.9578 V 0.164063 h -1.956 V 11.9578 h -1.712 v 1.4953 h 1.712 v 2.5274 c 0,1.9832 1.114,3.5859 3.396,3.5859 h 1.414 v -1.6848 h -1.061 c -1.249,0 -1.793,-0.7332 -1.793,-1.9558 v -2.4727 h 2.854 v -1.4953 h -2.854"
       style="fill:#283f90;fill-opacity:1;fill-rule:nonzero;stroke:none;stroke-width:0.1"
       id="path52" /><path
       d="m 265.149,10.9805 c -0.626,0.625 -1.494,0.9773 -2.445,0.9773 -0.951,0 -1.793,-0.3523 -2.418,-0.9773 -0.98,-0.9785 -1.088,-2.63675 -1.088,-4.13206 0,-1.49492 0.108,-3.15117 1.088,-4.12969 0.625,-0.625 1.467,-0.97852 2.418,-0.97852 0.951,0 1.819,0.35352 2.445,0.97852 0.979,0.97852 1.06,2.63477 1.06,4.12969 0,1.49531 -0.081,3.15356 -1.06,4.13206 m 1.387,-9.45706 c -0.925,-0.925002 -2.202,-1.52265875 -3.832,-1.52265875 -1.63,0 -2.907,0.59765675 -3.832,1.52265875 -1.359,1.38476 -1.629,3.25976 -1.629,5.325 0,2.0664 0.27,3.94136 1.629,5.32736 0.925,0.9238 2.202,1.5215 3.832,1.5215 1.63,0 2.907,-0.5977 3.832,-1.5215 1.359,-1.386 1.63,-3.26096 1.63,-5.32736 0,-2.06524 -0.271,-3.94024 -1.63,-5.325"
       style="fill:#283f90;fill-opacity:1;fill-rule:nonzero;stroke:none;stroke-width:0.1"
       id="path54" /><path
       d="m 283.898,10.9805 c -0.734,0.7332 -1.278,0.9773 -2.31,0.9773 -1.957,0 -3.205,-1.5496 -3.205,-3.58671 V 0.164063 h -1.959 V 13.5352 h 1.959 v -1.6309 c 0.732,1.1133 2.2,1.793 3.75,1.793 1.276,0 2.256,-0.2989 3.205,-1.25 l -1.44,-1.4668"
       style="fill:#283f90;fill-opacity:1;fill-rule:nonzero;stroke:none;stroke-width:0.1"
       id="path56" /><path
       d="m 306.124,0.164063 c -2.337,0 -3.397,1.521487 -3.397,3.559377 V 19.5129 h 1.957 V 3.80469 c 0,-1.30391 0.435,-1.95625 1.794,-1.95625 h 1.058 V 0.164063 h -1.412"
       style="fill:#283f90;fill-opacity:1;fill-rule:nonzero;stroke:none;stroke-width:0.1"
       id="path58" /><path
       d="m 314.927,13.5352 h 1.956 V 0.164063 h -1.956 z m 0.977,3.6941 c -0.733,0 -1.331,0.5988 -1.331,1.332 0,0.7348 0.598,1.3313 1.331,1.3313 0.735,0 1.36,-0.5965 1.36,-1.3313 0,-0.7332 -0.625,-1.332 -1.36,-1.332"
       style="fill:#283f90;fill-opacity:1;fill-rule:nonzero;stroke:none;stroke-width:0.1"
       id="path60" /><path
       d="M 328.268,11.9578 V 0.164063 h -1.956 V 11.9578 h -1.713 v 1.4953 h 1.713 v 2.5274 c 0,1.9832 1.115,3.5859 3.397,3.5859 h 1.412 v -1.6848 h -1.058 c -1.251,0 -1.795,-0.7332 -1.795,-1.9558 v -2.4727 h 2.853 v -1.4953 h -2.853"
       style="fill:#283f90;fill-opacity:1;fill-rule:nonzero;stroke:none;stroke-width:0.1"
       id="path62" /><path
       d="m 346.365,10.0281 c -0.515,1.2239 -1.712,2.011 -3.125,2.011 -1.414,0 -2.609,-0.7871 -3.126,-2.011 -0.298,-0.73318 -0.352,-1.14138 -0.407,-2.22732 h 7.066 c -0.054,1.08594 -0.11,1.49414 -0.408,2.22732 m -6.658,-3.69607 c 0,-2.93476 1.385,-4.61914 3.941,-4.61914 1.549,0 2.445,0.46289 3.505,1.52149 l 1.332,-1.16797 C 347.126,0.707031 345.875,0 343.593,0 c -3.532,0 -5.843,2.12109 -5.843,6.84844 0,4.32146 2.093,6.84886 5.49,6.84886 3.45,0 5.49,-2.5 5.49,-6.468 V 6.33203 h -9.023"
       style="fill:#283f90;fill-opacity:1;fill-rule:nonzero;stroke:none;stroke-width:0.1"
       id="path64" /><path
       d="m 84.207,53.2391 c 0,0 -6.1726,-2.6145 -17.0422,2.8625 L 45.4469,66.5375 C 34.3406,72.2684 28.025,69.5922 28.025,69.5922 l -0.007,-0.0027 c 0,0 -10.4692,-5.029 -10.8379,-5.1981 0,0 6.3172,2.6758 17.4219,-3.0559 L 56.3207,50.9004 c 10.8684,-5.477 17.041,-2.8617 17.041,-2.8617 l 10.8453,5.2004"
       style="fill:#283f90;fill-opacity:1;fill-rule:nonzero;stroke:none;stroke-width:0.1"
       id="path66" /><path
       d="m 101.369,61.4805 c 0,0 -6.1749,-2.6157 -17.0424,2.8613 L 62.6074,74.7773 c -11.1051,5.7325 -17.4219,3.0543 -17.4219,3.0543 l -0.007,-0.0019 c 0,0 -10.468,-5.0289 -10.8383,-5.1984 0,0 6.3168,2.6773 17.4227,-3.0547 l 21.7184,-10.436 c 10.8703,-5.4761 17.0421,-2.8625 17.0421,-2.8625 l 10.8456,5.2024"
       style="fill:#283f90;fill-opacity:1;fill-rule:nonzero;stroke:none;stroke-width:0.1"
       id="path68" /><path
       d="m 67.027,44.9984 c 0,0 -6.1735,-2.6136 -17.0422,2.8633 L 28.2664,58.2969 c -11.1059,5.732 -17.4219,3.0554 -17.4219,3.0554 l -0.0054,-0.0027 c 0,0 -10.469569,-5.0289 -10.8391,-5.1984 0,0 6.3168,2.6765 17.423,-3.0555 L 39.1395,42.6605 c 10.8703,-5.4781 17.0421,-2.8609 17.0421,-2.8609 l 10.8454,5.1988"
       style="fill:#283f90;fill-opacity:1;fill-rule:nonzero;stroke:none;stroke-width:0.1"
       id="path70" /></g></svg>
