<?xml version="1.0" encoding="UTF-8" standalone="no"?>
<svg
   width="101"
   height="47"
   viewBox="0 0 75.749997 35.249999"
   version="1.1"
   id="svg62"
   sodipodi:docname="040energie_logo.svg"
   inkscape:version="1.1.1 (3bf5ae0d25, 2021-09-20)"
   xmlns:inkscape="http://www.inkscape.org/namespaces/inkscape"
   xmlns:sodipodi="http://sodipodi.sourceforge.net/DTD/sodipodi-0.dtd"
   xmlns="http://www.w3.org/2000/svg"
   xmlns:svg="http://www.w3.org/2000/svg">
  <defs
     id="defs66" />
  <sodipodi:namedview
     id="namedview64"
     pagecolor="#ffffff"
     bordercolor="#666666"
     borderopacity="1.0"
     inkscape:pageshadow="2"
     inkscape:pageopacity="0.0"
     inkscape:pagecheckerboard="0"
     inkscape:document-units="pt"
     showgrid="false"
     inkscape:zoom="6.7183831"
     inkscape:cx="56.784496"
     inkscape:cy="60.133516"
     inkscape:window-width="1534"
     inkscape:window-height="1419"
     inkscape:window-x="0"
     inkscape:window-y="19"
     inkscape:window-maximized="1"
     inkscape:current-layer="svg62"
     units="px"
     height="56px"
     fit-margin-top="0"
     fit-margin-left="0"
     fit-margin-right="0"
     fit-margin-bottom="0"
     lock-margins="true" />
  <path
     id="path10"
     style="stroke-width:0.131736;fill:#67507e;fill-opacity:1"
     d="M 30.603516 3.7363281 C 30.131437 3.7403661 29.659165 3.7778913 29.197266 3.8359375 C 27.760024 4.0651583 26.31067 4.7673914 25.570312 6.0742188 C 24.551988 7.8184045 24.485669 9.9055913 24.480469 11.871094 C 24.550289 13.931445 24.757888 16.210635 26.210938 17.808594 C 26.890695 18.517335 27.758165 19.081286 28.738281 19.257812 C 29.735524 19.421159 30.754619 19.451763 31.759766 19.34375 C 33.002038 19.183033 34.263451 18.682788 35.068359 17.685547 C 35.700693 16.871418 36.032997 15.872151 36.275391 14.882812 C 36.695629 12.49839 36.700961 10.017551 36.101562 7.6621094 C 35.756413 6.2881019 34.893074 5.0082899 33.615234 4.3496094 C 32.680567 3.8822757 31.642089 3.7274447 30.603516 3.7363281 z M 30.416016 6.6777344 C 30.882299 6.6538986 31.361198 6.8772878 31.625 7.2695312 C 32.122963 8.0467743 32.202122 8.9960911 32.232422 9.8945312 C 32.310142 11.51752 32.37117 13.162351 32.083984 14.769531 C 31.915362 15.403182 31.635471 16.141191 30.957031 16.373047 C 30.393199 16.629932 29.697479 16.340023 29.398438 15.818359 C 28.843828 14.915966 28.831171 13.821146 28.792969 12.794922 C 28.696809 11.474926 28.775473 10.149392 28.880859 8.8320312 C 28.994153 8.0732315 29.188964 7.1388447 29.960938 6.7871094 C 30.105189 6.7215706 30.260588 6.6856796 30.416016 6.6777344 z "
     transform="scale(0.75)" />
  <path
     fill="#ffb009"
     d="m 60.202876,0 c 0.140298,0.15709529 0.314191,0.2964062 0.39916,0.49499835 C 60.856946,1.4168217 61.119759,2.391998 60.881646,3.348402 60.766048,3.414599 60.651437,3.4807968 60.536827,3.5489703 60.416289,3.486725 60.296738,3.4215156 60.177187,3.3602583 59.894614,2.5392131 59.686142,1.671731 59.756291,0.7983207 59.783955,0.47919003 60.007248,0.23416089 60.202876,0 Z"
     id="path4"
     style="stroke-width:0.0988021" />
  <path
     fill="#ffb009"
     d="m 64.098642,2.1558611 c 0.201555,-0.3537114 0.496974,-0.6362854 0.785476,-0.9178712 0.08497,0.023713 0.253921,0.072125 0.338891,0.096826 -0.07212,0.8487098 -0.377424,1.6756831 -0.862542,2.3732257 -0.206496,0.2183525 -0.46437,0.049401 -0.630357,-0.1195506 0.110658,-0.47919 0.08991,-1.006793 0.368532,-1.4326299 z"
     id="path6"
     style="stroke-width:0.0988021" />
  <path
     fill="#ffb009"
     d="m 55.906962,1.9770293 c 0.127455,-0.1383228 0.267754,-0.2647895 0.418921,-0.3793999 0.418921,0.3448193 0.732123,0.7983207 1.061134,1.2251456 0.260838,0.522663 0.466346,1.0739785 0.679759,1.6173898 -0.05039,0.140299 -0.09979,0.2805979 -0.148204,0.4208968 C 57.675519,4.7938763 57.416657,4.7148346 57.278335,4.4846258 56.920672,3.9836993 56.422708,3.5598384 56.240913,2.9531938 56.129267,2.628135 56.035404,2.29616 55.906962,1.9770293 Z"
     id="path8"
     style="stroke-width:0.0988021" />
  <path
     id="path12"
     style="stroke-width:0.131736;fill:#67507e;fill-opacity:1"
     d="M 46.443359 4.4277344 C 46.157821 4.4285165 45.873428 4.4312655 45.587891 4.4355469 C 45.31388 4.4118343 45.188744 4.7038348 45.025391 4.8671875 C 44.129585 6.022513 43.175514 7.1308331 42.244141 8.2558594 C 41.107257 9.5877112 40.031236 10.971931 38.853516 12.269531 C 38.521541 12.6542 38.20166 13.052104 37.878906 13.443359 C 37.88144 14.581561 37.874232 15.717269 37.884766 16.855469 C 40.385116 16.854151 42.887004 16.854151 45.388672 16.855469 C 45.39122 17.844807 45.383378 18.833564 45.392578 19.824219 C 46.600598 19.818885 47.806969 19.823583 49.013672 19.822266 L 49.013672 16.855469 C 49.671036 16.85415 50.331554 16.85415 50.990234 16.855469 L 50.990234 13.556641 C 50.332872 13.555291 49.672988 13.554727 49.015625 13.558594 C 49.009092 10.516807 49.014989 7.4727912 49.013672 4.4296875 C 48.157058 4.4346255 47.299973 4.425388 46.443359 4.4277344 z M 45.384766 8.9824219 C 45.395299 10.502656 45.377331 12.022735 45.394531 13.542969 C 44.140403 13.569315 42.884987 13.549487 41.630859 13.554688 C 42.040559 13.050138 42.444268 12.542793 42.871094 12.052734 C 43.766898 11.077887 44.529799 9.9928377 45.384766 8.9824219 z "
     transform="scale(0.75)" />
  <path
     id="path14"
     style="stroke-width:0.131736;fill:#67507e;fill-opacity:1"
     d="M 58.919922 4.4375 C 58.310846 4.4375772 57.699717 4.4956482 57.109375 4.5761719 C 55.75381 4.8620392 54.392059 5.5609614 53.707031 6.8164062 C 52.767753 8.4631075 52.69224 10.421274 52.621094 12.269531 C 52.693548 14.084855 52.822493 15.985658 53.701172 17.615234 C 54.141171 18.294992 54.683838 18.926873 55.392578 19.337891 C 56.480718 20.099324 57.866736 20.117376 59.140625 20.101562 C 60.69511 20.080484 62.359275 19.555322 63.322266 18.265625 C 64.337951 16.837606 64.614319 15.037424 64.693359 13.326172 C 64.800065 11.470011 64.659532 9.5785827 64.095703 7.7988281 C 63.67283 6.6869755 62.926666 5.6390917 61.839844 5.0976562 C 60.944038 4.5995293 59.935049 4.4373713 58.919922 4.4375 z M 58.630859 7.3808594 C 59.107518 7.3757342 59.585003 7.6407533 59.833984 8.0507812 C 60.16596 8.6067075 60.294824 9.2549755 60.359375 9.8925781 C 60.481895 11.29952 60.538846 12.716059 60.445312 14.126953 C 60.338606 14.929225 60.28116 15.77895 59.839844 16.482422 C 59.514456 17.027809 58.775817 17.357542 58.177734 17.066406 C 57.413665 16.712036 57.190966 15.795228 57.060547 15.039062 C 56.918271 13.636073 56.880633 12.220759 56.957031 10.8125 C 56.993925 9.8877127 57.020811 8.9165565 57.472656 8.0839844 C 57.61098 7.798117 57.878877 7.6043006 58.162109 7.4804688 C 58.311959 7.4139421 58.471973 7.3825678 58.630859 7.3808594 z "
     transform="scale(0.75)" />
  <path
     fill="#ffb009"
     d="m 66.768273,5.2157611 c 0.447573,-0.4278129 1.067062,-0.5760161 1.61245,-0.8358655 0.196616,0.037545 0.394221,0.073113 0.592812,0.1096703 0.01778,0.477214 -0.434729,0.7242191 -0.720266,1.0314936 -0.461406,0.4920342 -1.11844,0.7005067 -1.719157,0.9633201 -0.207483,0.1047302 -0.429789,0.016796 -0.636285,-0.036557 0.002,-0.5710759 0.495987,-0.8872425 0.870446,-1.2320615 z"
     id="path16"
     style="stroke-width:0.0988021" />
  <path
     fill="#ffb009"
     d="m 60.414312,4.8007924 c 1.015685,-0.2341608 2.1114,-0.054341 3.016428,0.4574536 0.985057,0.5542796 1.717179,1.5225398 2.013585,2.6113387 0.251946,0.9988888 0.153144,2.0946038 -0.326047,3.0114873 -0.532542,1.030505 -1.488947,1.858466 -2.617266,2.154873 -1.207361,0.369519 -2.574782,0.132395 -3.607264,-0.584909 -0.908978,-0.641225 -1.581821,-1.641102 -1.76164,-2.745709 -0.20946,-1.1095472 0.05237,-2.3030761 0.719279,-3.2169953 0.606644,-0.8536499 1.535384,-1.4741268 2.562925,-1.6875393 z"
     id="path18"
     style="stroke-width:0.0988021" />
  <path
     fill="#ffb009"
     d="m 52.576344,5.021121 c 0.221317,-0.078053 0.43967,-0.2045203 0.681734,-0.1976041 1.252811,0.2470051 2.452268,0.8724223 3.247624,1.8930476 C 56.283398,6.975426 56.001812,7.2293472 55.632293,7.1878503 54.711457,7.0109947 54.017867,6.3302484 53.235355,5.8668667 52.896463,5.6969271 52.74826,5.3343235 52.576344,5.021121 Z"
     id="path20"
     style="stroke-width:0.0988021" />
  <path
     fill="#ffb009"
     d="m 67.395667,8.5977558 c 0.838828,-0.2361369 1.72706,-0.1254786 2.568853,0.035568 0.299371,0.037545 0.531555,0.2440412 0.757812,0.426825 -1.165865,0.4653581 -2.477956,0.4544899 -3.690257,0.1877243 -0.06718,-0.09979 -0.133383,-0.2005681 -0.19958,-0.3003583 0.169939,-0.1412869 0.338891,-0.3003583 0.563172,-0.349759 z"
     id="path28"
     style="stroke-width:0.0988021" />
  <path
     fill="#ffb009"
     d="m 52.102095,9.7211353 c 0.458441,-0.191676 0.96332,-0.2292208 1.45239,-0.3003583 0.566136,-0.085958 1.119427,0.1076943 1.670743,0.2094604 0.255897,0.046437 0.429789,0.2489813 0.596765,0.4317646 -0.16006,0.175868 -0.331976,0.3794 -0.595777,0.365568 -0.885267,0.06126 -1.799186,0.234161 -2.667656,-0.02767 -0.220329,-0.06225 -0.439669,-0.126468 -0.65901,-0.1897 0.05039,-0.168952 -0.006,-0.4159571 0.202545,-0.4890707 z"
     id="path30"
     style="stroke-width:0.0988021" />
  <path
     fill="#ffb009"
     d="m 66.704052,12.272204 c -0.226257,-0.193651 -0.233172,-0.512782 -0.156108,-0.77856 0.589849,0.08991 1.20835,0.150179 1.729036,0.470298 0.600717,0.380388 1.221194,0.958381 1.136225,1.740892 -0.517723,-0.100781 -1.054219,-0.188711 -1.505744,-0.477213 -0.430777,-0.277634 -0.824998,-0.610597 -1.203409,-0.955417 z"
     id="path32"
     style="stroke-width:0.0988021" />
  <path
     fill="#ffb009"
     d="m 55.661933,12.205019 c 0.310239,-0.213413 0.816105,-0.04347 0.83883,0.357664 0.05731,0.21934 -0.139311,0.357663 -0.267755,0.497962 -0.621464,0.602693 -1.204396,1.254786 -1.927628,1.739904 -0.198591,0.129431 -0.410028,0.275659 -0.658021,0.266766 -0.247993,-0.03953 -0.226257,-0.324071 -0.142275,-0.497962 0.282573,-0.625417 0.799309,-1.093739 1.254786,-1.591702 0.273682,-0.285538 0.555268,-0.575028 0.902063,-0.772632 z"
     id="path34"
     style="stroke-width:0.0988021" />
  <path
     fill="#ffb009"
     d="m 62.914993,13.950852 c 0.02964,-0.22428 0.334938,-0.312214 0.505866,-0.183772 0.415957,0.279609 0.675806,0.732124 0.905027,1.166852 0.221317,0.471286 0.483143,0.950476 0.498951,1.484008 0.02173,0.325058 -0.07707,0.640237 -0.164012,0.9485 -0.305298,-0.121527 -0.636285,-0.257874 -0.817093,-0.54934 -0.260837,-0.432753 -0.464369,-0.898111 -0.626405,-1.376313 -0.16994,-0.475238 -0.39916,-0.974188 -0.302334,-1.489935 z"
     id="path36"
     style="stroke-width:0.0988021" />
  <path
     fill="#ffb009"
     d="m 59.022191,14.469563 c 0.129431,-0.222305 0.407064,-0.159072 0.619489,-0.157095 -0.05928,0.938619 -0.302334,1.90194 -0.899098,2.648883 -0.14524,0.201556 -0.408053,0.235149 -0.623442,0.320119 -0.06718,-0.412005 -0.165,-0.853651 -0.0029,-1.255775 0.223293,-0.559219 0.565149,-1.06311 0.906016,-1.556132 z"
     id="path38"
     style="stroke-width:0.0988021" />
  <path
     fill="#04b655"
     d="m 59.599195,18.546136 c 1.235026,0.121527 2.469064,0.261825 3.702113,0.40904 -0.360626,3.111277 -0.715326,6.222555 -1.060145,9.335808 -1.237002,-0.11461 -2.4661,-0.297395 -3.703102,-0.402125 0.355687,-3.114241 0.688651,-6.230458 1.061134,-9.342723 z"
     id="path40"
     style="fill:#e6fce7;fill-opacity:1;stroke-width:0.0988021" />
  <path
     fill="#04b655"
     d="m 38.968336,18.650866 c 1.156972,0.09485 2.307028,0.248981 3.460049,0.378412 -0.07608,0.495986 -0.09782,1.000865 -0.223294,1.487959 0.01482,0.002 0.04248,0.005 0.05731,0.0069 0.372484,-0.551315 0.752871,-1.186613 1.421762,-1.406942 0.91293,-0.378411 1.898975,0.08892 2.655799,0.604669 -0.467333,0.804249 -0.907003,1.624307 -1.380265,2.425591 -0.458442,-0.210448 -0.971225,-0.490058 -1.486971,-0.30925 -0.45449,0.12449 -0.721255,0.555267 -0.915895,0.952451 -0.307274,0.73904 -0.462393,1.53242 -0.552304,2.324813 -0.126466,1.087811 -0.256885,2.175621 -0.35964,3.266396 -1.238977,-0.106706 -2.471039,-0.26973 -3.708041,-0.391256 0.34482,-3.113253 0.670866,-6.228482 1.031494,-9.339759 z"
     id="path42"
     style="fill:#e6fce7;fill-opacity:1;stroke-width:0.0988021" />
  <path
     fill="#04b655"
     d="m 13.91312,18.924548 c 1.147091,0.05631 2.288255,0.185748 3.435348,0.244041 -0.03656,0.504879 -0.06126,1.011733 -0.128444,1.514636 0.503891,-0.523651 1.051255,-1.03347 1.729038,-1.319008 0.70347,-0.250958 1.472149,-0.275658 2.206249,-0.178832 0.77856,0.103742 1.535385,0.516735 1.961221,1.188589 0.393232,0.572064 0.502903,1.282451 0.524639,1.962209 -0.06027,2.229963 -0.306286,4.449057 -0.431765,6.675068 -1.239966,-0.06027 -2.474991,-0.206496 -3.715946,-0.253922 0.083,-1.673706 0.241077,-3.342474 0.352724,-5.014204 0.006,-0.508831 0.06422,-1.077931 -0.267754,-1.506732 -0.305298,-0.38928 -0.869458,-0.426825 -1.312091,-0.291466 -0.492034,0.187724 -0.805237,0.67383 -0.871434,1.184637 -0.300358,1.790293 -0.318143,3.613191 -0.437694,5.421269 -1.248858,-0.04842 -2.4908,-0.197604 -3.73867,-0.261825 0.257874,-3.119181 0.451526,-6.244291 0.694579,-9.36446 z"
     id="path44"
     style="fill:#e6fce7;fill-opacity:1;stroke-width:0.0988021" />
  <path
     id="path46"
     style="fill:#e6fce7;fill-opacity:1;stroke-width:0.0988018"
     d="m 31.170316,20.009599 c -0.977724,0.0096 -1.956895,0.139143 -2.870567,0.49483 -0.860566,0.346796 -1.651,0.911931 -2.166747,1.692468 -0.653082,0.884279 -0.904064,2.022523 -0.81613,3.108357 0.0168,1.543289 0.785434,3.068677 2.056028,3.956908 0.907004,0.658022 2.07586,0.779635 3.164657,0.755922 1.34272,-0.0741 2.762498,-0.232223 3.892792,-1.02758 0.898111,-0.633321 1.4307,-1.631175 1.848632,-2.620185 -1.229099,-0.01679 -2.45731,0.0414 -3.686408,0.02461 -0.186736,0.23416 -0.368493,0.478202 -0.602654,0.666913 -0.638262,0.413981 -1.532374,0.496084 -2.175575,0.0495 -0.417933,-0.284551 -0.613619,-0.775609 -0.726254,-1.248872 2.45622,-0.230208 4.912424,-0.444583 7.369632,-0.6659 -0.08596,-1.186613 -0.324079,-2.408859 -1.020633,-3.399842 -0.750896,-1.054219 -2.014509,-1.673691 -3.29202,-1.760636 -0.323082,-0.01951 -0.648845,-0.02968 -0.974753,-0.02648 z m -0.320287,2.592396 c 0.348644,-0.0027 0.698874,0.06295 1.017448,0.189596 0.437694,0.185748 0.599683,0.662003 0.767646,1.067092 -1.235025,0.144251 -2.478904,0.203622 -3.714918,0.339969 0.06026,-0.472274 0.245916,-0.960472 0.662861,-1.230202 0.372916,-0.246201 0.818707,-0.362921 1.266963,-0.366455 z" />
  <path
     id="path50"
     style="fill:#e6fce7;fill-opacity:1;stroke-width:0.0988018"
     d="m 7.1185735,20.426275 c -1.1312839,-0.01482 -2.2596922,0.200659 -3.3267546,0.562274 -1.482031,0.533532 -2.7417303,1.787234 -3.05987297,3.359174 -0.0671854,0.543413 -0.16600096,1.094739 -0.0632469,1.642102 0.0484131,1.564038 0.88434793,3.103454 2.22015193,3.936356 0.8546379,0.579968 1.9305942,0.723208 2.9413396,0.643178 1.1737686,-0.112634 2.3583974,-0.335005 3.4254598,-0.857667 0.659998,-0.314191 1.2141656,-0.828833 1.6143146,-1.437455 0.39422,-0.577992 0.624494,-1.244927 0.857666,-1.898997 -1.181672,0.08398 -2.3534663,0.251968 -3.5341508,0.342865 -0.3171546,9.87e-4 -0.3626693,0.390244 -0.5612614,0.569076 -0.5977529,0.632334 -1.6864283,0.864498 -2.4175633,0.32405 C 4.8283394,27.35237 4.6277711,26.918554 4.4736401,26.496668 6.9160273,26.078735 9.3504484,25.612481 11.7958,25.206404 11.578434,23.984222 11.241541,22.700692 10.360227,21.776891 9.5431332,20.87878 8.3130905,20.447024 7.1185735,20.426275 Z m -0.9029682,2.67055 c 0.3022439,-1.97e-4 0.6035861,0.05184 0.8841531,0.160216 0.3932324,0.171916 0.5473014,0.600686 0.7271214,0.956374 -1.2261338,0.188711 -2.4393825,0.448569 -3.66354,0.650125 0.015808,-0.568111 0.2598899,-1.166793 0.7825528,-1.445415 0.3842474,-0.209429 0.8279712,-0.321066 1.2697127,-0.3213 z" />
  <path
     id="path52"
     style="fill:#e6fce7;fill-opacity:1;stroke-width:0.0988018"
     d="m 56.638092,20.885792 c -1.153021,0.0662 -2.303122,0.174885 -3.456142,0.228238 0.03162,0.437693 0.05541,0.874426 0.08307,1.312119 -0.587872,-0.605656 -1.264655,-1.210389 -2.137076,-1.325 -0.981105,-0.11461 -2.048141,-0.07608 -2.911671,0.461399 -1.076943,0.595777 -1.708317,1.798257 -1.808106,3.000678 -0.12449,1.421762 0.03059,2.952192 0.853614,4.160541 0.566136,0.779549 1.378255,1.418836 2.335647,1.620393 0.86847,0.159071 1.80015,0.0473 2.569818,-0.398296 0.533532,-0.234161 0.894215,-0.705344 1.267686,-1.130193 0.002,0.808201 0.150245,1.634149 -0.03155,2.43247 -0.303323,0.752872 -1.270711,0.890258 -1.971217,0.720319 -0.366556,-0.05829 -0.596721,-0.371619 -0.722201,-0.694702 -1.230087,-0.02075 -2.460204,-0.02963 -3.689302,-0.06223 -0.0247,0.921824 0.219424,1.924688 0.949572,2.543189 0.832901,0.771644 2.034238,0.867462 3.114146,0.894139 1.482031,-0.01581 3.043223,-0.09091 4.371122,-0.821051 0.957393,-0.524637 1.542216,-1.551079 1.740808,-2.600356 0.102754,-0.852663 -0.01183,-1.709341 -0.05036,-2.562003 -0.176856,-2.592566 -0.357677,-5.185107 -0.507856,-7.77965 z m -5.116336,2.639434 c 0.288462,-0.0036 0.576462,0.06883 0.813525,0.240684 0.589849,0.366557 0.838779,1.081849 0.887192,1.742834 0.002,0.633322 -0.005,1.360456 -0.501922,1.827791 -0.656046,0.669878 -1.906856,0.512803 -2.347514,-0.32405 -0.315178,-0.714339 -0.357636,-1.528512 -0.244014,-2.29324 0.09188,-0.527604 0.480194,-1.001813 1.003845,-1.144088 0.12659,-0.03088 0.257769,-0.04827 0.388888,-0.04994 z" />
  <path
     id="path48"
     style="fill:#e6fce7;fill-opacity:1;stroke-width:0.0988018"
     d="m 70.729689,20.266638 c -1.178356,0.0066 -2.361042,0.212502 -3.43675,0.698176 -1.569965,0.658022 -2.687506,2.256593 -2.78532,3.954012 -0.07312,1.415834 0.341847,2.883035 1.276515,3.966894 0.774608,0.939607 1.976146,1.51466 3.196353,1.505767 1.507719,0.01087 3.04606,-0.285562 4.388777,-0.987056 1.196496,-0.665926 1.84464,-1.954188 2.228982,-3.215892 -1.154999,0.161047 -2.320905,0.215366 -3.478865,0.346772 -0.349759,-0.01087 -0.425851,0.394126 -0.633336,0.594695 -0.592812,0.579968 -1.587721,0.800328 -2.318857,0.354732 -0.421884,-0.256886 -0.666864,-0.703423 -0.813091,-1.160877 1.219217,-0.249969 2.450186,-0.429833 3.672369,-0.663005 0.995921,-0.136347 1.975166,-0.394194 2.979983,-0.466319 0.227239,-0.0247 0.448448,-0.08099 0.673716,-0.124468 -0.191678,-0.984068 -0.39805,-2.000776 -0.958258,-2.851463 -0.681734,-1.089786 -1.89906,-1.819908 -3.178549,-1.925627 -0.2701,-0.01871 -0.541741,-0.02786 -0.813669,-0.02634 z m -0.646941,2.638132 c 0.258804,7.91e-4 0.516819,0.04029 0.760119,0.118099 0.457453,0.138322 0.688691,0.590777 0.856655,1.000805 -1.21329,0.226257 -2.431557,0.420974 -3.643857,0.64723 0.01878,-0.436704 0.11366,-0.903117 0.45749,-1.205452 0.427257,-0.376991 1.000223,-0.562452 1.569593,-0.560682 z" />
</svg>
