<?xml version="1.0" encoding="UTF-8" standalone="no"?>
<svg
   width="43.803749"
   height="45.216957"
   viewBox="0 0 32.852811 33.912717"
   version="1.1"
   id="svg62"
   sodipodi:docname="040op60_logo.svg"
   inkscape:version="1.1.1 (3bf5ae0d25, 2021-09-20)"
   xmlns:inkscape="http://www.inkscape.org/namespaces/inkscape"
   xmlns:sodipodi="http://sodipodi.sourceforge.net/DTD/sodipodi-0.dtd"
   xmlns="http://www.w3.org/2000/svg"
   xmlns:svg="http://www.w3.org/2000/svg">
  <defs
     id="defs66" />
  <sodipodi:namedview
     id="namedview64"
     pagecolor="#ffffff"
     bordercolor="#666666"
     borderopacity="1.0"
     inkscape:pageshadow="2"
     inkscape:pageopacity="0.0"
     inkscape:pagecheckerboard="0"
     inkscape:document-units="pt"
     showgrid="false"
     inkscape:zoom="6.7183831"
     inkscape:cx="93.102759"
     inkscape:cy="75.01805"
     inkscape:window-width="2558"
     inkscape:window-height="1419"
     inkscape:window-x="0"
     inkscape:window-y="19"
     inkscape:window-maximized="1"
     inkscape:current-layer="svg62"
     units="px"
     height="56px"
     fit-margin-top="0"
     fit-margin-left="0"
     fit-margin-right="0"
     fit-margin-bottom="0"
     lock-margins="true" />
  <text
     xml:space="preserve"
     style="font-size:16.9909px;line-height:125%;font-family:Rubik;-inkscape-font-specification:Rubik;letter-spacing:0px;word-spacing:0px;fill:#67507e;fill-opacity:1;stroke:#67507e;stroke-width:0.401936;stroke-linecap:butt;stroke-linejoin:miter;stroke-miterlimit:4;stroke-dasharray:none;stroke-opacity:1"
     x="-0.48300999"
     y="12.077465"
     id="text2411"
     transform="scale(1.0633599,0.94041539)"><tspan
       sodipodi:role="line"
       id="tspan2409"
       style="font-style:normal;font-variant:normal;font-weight:bold;font-stretch:normal;font-family:'Liberation Sans';-inkscape-font-specification:'Liberation Sans Bold';fill:#67507e;fill-opacity:1;stroke:#67507e;stroke-width:0.401936;stroke-miterlimit:4;stroke-dasharray:none;stroke-opacity:1"
       x="-0.48300999"
       y="12.077465">040</tspan></text>
  <path
     d="m 20.78141,15.588815 q 0.459897,1.999725 -0.533048,3.428933 -0.994692,1.421605 -3.212862,1.93174 -2.175182,0.500248 -3.675528,-0.355553 -1.500347,-0.855801 -1.958495,-2.847922 -0.4564,-1.984518 0.521098,-3.402168 0.97575,-1.425254 3.202517,-1.937366 2.278352,-0.523976 3.726967,0.303694 1.455465,0.818089 1.929351,2.878642 z m -2.527681,0.581316 q -0.337491,-1.467478 -1.03127,-2.004417 -0.69378,-0.536938 -1.725486,-0.299666 -2.200976,0.506181 -1.559218,3.296671 0.316507,1.376237 1.015678,1.97598 0.70602,0.590163 1.720532,0.356845 2.226767,-0.512112 1.579764,-3.325413 z"
     style="font-weight:bold;font-size:16.9909px;line-height:125%;font-family:'Liberation Sans';-inkscape-font-specification:'Liberation Sans Bold';letter-spacing:0px;word-spacing:0px;fill:#e6fce7;stroke:#e6fce7;stroke-width:0.402"
     id="path12823" />
  <path
     d="m 32.480906,18.442317 q -0.437707,2.06854 -1.617516,2.999154 -1.169563,0.924809 -2.878478,0.563199 -0.983921,-0.208199 -1.638403,-0.737452 -0.644236,-0.535058 -0.882418,-1.327111 l -0.05178,-0.01096 q 0.0033,0.239948 -0.242175,1.400162 l -0.670288,3.16769 -2.425278,-0.513192 2.031862,-9.602302 q 0.247119,-1.167847 0.333132,-1.915224 l 2.356231,0.498583 q 0.01408,0.146525 -0.04563,0.556551 -0.05109,0.411852 -0.135076,0.808768 l 0.03452,0.0073 q 1.14135,-1.345466 3.307702,-0.887062 1.631237,0.345172 2.293037,1.649525 0.663414,1.29672 0.230553,3.342361 z m -2.528849,-0.535109 q 0.587915,-2.778409 -1.336772,-3.185675 -0.966658,-0.204547 -1.642797,0.433908 -0.667507,0.64028 -0.951774,1.983687 -0.282652,1.335773 0.07152,2.176292 0.364414,0.834713 1.313811,1.035607 1.941949,0.410919 2.546016,-2.443819 z"
     style="font-weight:bold;font-size:16.9909px;line-height:125%;font-family:'Liberation Sans';-inkscape-font-specification:'Liberation Sans Bold';letter-spacing:0px;word-spacing:0px;fill:#e6fce7;stroke:#e6fce7;stroke-width:0.402"
     id="path12825" />
  <text
     xml:space="preserve"
     style="font-size:16.9909px;line-height:125%;font-family:Rubik;-inkscape-font-specification:Rubik;letter-spacing:0px;word-spacing:0px;fill:#67507e;fill-opacity:1;stroke:#67507e;stroke-width:0.401936;stroke-linecap:butt;stroke-linejoin:miter;stroke-miterlimit:4;stroke-dasharray:none;stroke-opacity:1"
     x="4.1699386"
     y="35.681797"
     id="text9253"
     transform="scale(1.0633599,0.94041538)"><tspan
       sodipodi:role="line"
       id="tspan9251"
       style="font-style:normal;font-variant:normal;font-weight:bold;font-stretch:normal;font-family:'Liberation Sans';-inkscape-font-specification:'Liberation Sans Bold';fill:#67507e;fill-opacity:1;stroke:#67507e;stroke-width:0.401936;stroke-miterlimit:4;stroke-dasharray:none;stroke-opacity:1"
       x="4.1699386"
       y="35.681797">60</tspan></text>
</svg>
