<?xml version="1.0" encoding="UTF-8" standalone="no"?>
<!-- Generator: Adobe Illustrator 19.2.1, SVG Export Plug-In . SVG Version: 6.00 Build 0)  -->

<svg
   version="1.1"
   id="layer"
   x="0px"
   y="0px"
   viewBox="0 0 600 293.62061"
   xml:space="preserve"
   sodipodi:docname="ferrolilogo.svg"
   width="600"
   height="293.62061"
   inkscape:version="1.1 (c4e8f9ed74, 2021-05-24)"
   xmlns:inkscape="http://www.inkscape.org/namespaces/inkscape"
   xmlns:sodipodi="http://sodipodi.sourceforge.net/DTD/sodipodi-0.dtd"
   xmlns="http://www.w3.org/2000/svg"
   xmlns:svg="http://www.w3.org/2000/svg"><defs
   id="defs27" /><sodipodi:namedview
   id="namedview25"
   pagecolor="#ffffff"
   bordercolor="#666666"
   borderopacity="1.0"
   inkscape:pageshadow="2"
   inkscape:pageopacity="0.0"
   inkscape:pagecheckerboard="0"
   showgrid="false"
   fit-margin-top="0"
   fit-margin-left="0"
   fit-margin-right="0"
   fit-margin-bottom="0"
   inkscape:zoom="0.57745399"
   inkscape:cx="305.65206"
   inkscape:cy="147.19788"
   inkscape:window-width="878"
   inkscape:window-height="1179"
   inkscape:window-x="0"
   inkscape:window-y="19"
   inkscape:window-maximized="1"
   inkscape:current-layer="layer" />
<style
   type="text/css"
   id="style2">
	.st0{fill:#FF7A00;}
</style>
<g
   id="g22"
   transform="translate(-20.5,-174.57939)">
	<path
   d="M 117.4,250 H 81.6 c -8.1,0 -13.8,1.6 -17.1,4.9 -3.3,3.3 -4.1,9 -4.1,17.9 v 19.5 h 47.2 v 26.9 H 60.4 v 149 H 20.5 V 273.6 c 0,-16.3 3.3,-27.7 10.6,-35 7.3,-7.3 19.5,-10.6 36.6,-10.6 h 49.7 v 22"
   id="path4" />
	<path
   d="m 186.6,329.8 c 0,-13 -0.8,-22 -2.4,-26.9 -1.6,-4.9 -4.9,-7.3 -9.8,-7.3 -4.9,0 -8.1,2.4 -9.8,6.5 -1.6,4.1 -2.4,13.8 -2.4,27.7 h 24.4 m 31,21.9 H 163 c 0,22 0.8,36.6 2.4,42.3 1.6,5.7 4.9,9 10.6,9 3.3,0 6.5,-0.8 8.1,-3.3 1.6,-2.4 2.4,-6.5 2.4,-12.2 h 26.9 c 0,13 -3.3,22.8 -9.8,29.3 -6.5,6.5 -17.1,9.8 -31.8,9.8 -15.5,0 -27.7,-6.5 -35.8,-19.5 -8.1,-13 -12.2,-32.6 -12.2,-57.8 0,-25.2 4.1,-44.8 12.2,-57.8 8.1,-13 21.2,-19.5 38.3,-19.5 14.7,0 25.2,4.9 31.8,15.5 6.5,10.6 10.6,26.1 10.6,47.2 v 17.1 h 0.9 z"
   id="path6" />
	<path
   d="m 307.1,307 c -3.3,-0.8 -5.7,-2.4 -9,-2.4 -3.3,-0.8 -5.7,-0.8 -9,-0.8 -3.3,0 -7.3,0 -10.6,0.8 -3.3,0.8 -5.7,1.6 -7.3,2.4 V 425.9 H 234.6 V 273.6 h 30.9 l 2.4,6.5 c 3.3,-3.3 7.3,-4.9 12.2,-6.5 4.9,-1.6 9.8,-2.4 15.5,-2.4 2.4,0 4.9,0 6.5,0.8 1.6,0.8 4.1,1.6 5.7,2.4 V 307"
   id="path8" />
	<path
   d="m 391,307 c -3.3,-0.8 -5.7,-2.4 -9,-2.4 -3.3,-0.8 -5.7,-0.8 -9,-0.8 -3.3,0 -7.3,0 -10.6,0.8 -3.3,0.8 -5.7,1.6 -7.3,2.4 V 425.9 H 317.7 V 273.6 h 30.9 l 2.4,6.5 c 3.3,-3.3 7.3,-4.9 12.2,-6.5 4.9,-1.6 9.8,-2.4 15.5,-2.4 2.4,0 4.9,0 6.5,0.8 2.4,0.8 4.1,1.6 5.7,2.4 L 391,307"
   id="path10" />
	<path
   d="m 459.4,349.3 c 0,-24.4 -0.8,-39.1 -1.6,-44.8 -0.8,-5.7 -4.1,-9 -9,-9 -4.9,0 -8.1,3.3 -9,9 -1.6,5.7 -1.6,21.2 -1.6,45.6 0,23.6 0.8,38.3 1.6,44.8 1.6,5.7 4.1,9 9,9 4.1,0 7.3,-3.3 9,-9.8 0.7,-6.5 1.6,-22 1.6,-44.8 m 39,0 c 0,26.9 -4.1,46.4 -12.2,59.4 -8.1,12.2 -20.4,18.7 -37.4,18.7 -16.3,0 -28.5,-6.5 -37.4,-19.5 -8.1,-13 -12.2,-32.6 -12.2,-57.8 0,-26.9 4.1,-45.6 12.2,-58.6 8.1,-12.2 20.4,-18.7 37.4,-18.7 17.9,0 30.9,6.5 38.3,18.7 7.3,12.2 11.3,31.7 11.3,57.8 z"
   id="path12" />
	<path
   d="m 568.4,425 h -23.6 c -9,0 -16.3,-2.4 -21.2,-7.3 -4.9,-4.9 -7.3,-13 -7.3,-22.8 V 228 h 37.4 v 165.3 c 0,4.1 0.8,7.3 2.4,9 1.6,1.6 5.7,2.4 11.4,2.4 V 425"
   id="path14" />
	<path
   d="m 583.1,273.6 h 37.4 V 425 h -37.4 z m 0,-45.6 h 37.4 v 34.2 h -37.4 z"
   id="path16" />
	<path
   d="M 434.9,259.7 C 412.1,232 376.3,206 332.3,190.5 259.1,163.7 185,171.8 150,206.8 c 1.6,17.1 9,35.8 20.4,52.9 26.1,-50.5 110.7,-66.8 196.2,-35.8 26.1,9.8 49.7,22.8 69.2,37.4 z"
   id="path18" />
	<path
   class="st0"
   d="M 434.9,259.7 C 412.1,232 376.3,206 332.3,190.5 259.1,163.7 185,171.8 150,206.8 c 1.6,17.1 9,35.8 20.4,52.9 26.1,-50.5 110.7,-66.8 196.2,-35.8 26.1,9.8 49.7,22.8 69.2,37.4 z"
   id="path20" />
</g>
</svg>
