<?xml version="1.0" encoding="UTF-8" standalone="no"?>
<svg
   id="Layer_1"
   data-name="Layer 1"
   viewBox="0 0 137.66 30.666407"
   version="1.1"
   sodipodi:docname="ataglogo.svg"
   width="137.66"
   height="30.666407"
   inkscape:version="1.1 (c4e8f9ed74, 2021-05-24)"
   xmlns:inkscape="http://www.inkscape.org/namespaces/inkscape"
   xmlns:sodipodi="http://sodipodi.sourceforge.net/DTD/sodipodi-0.dtd"
   xmlns="http://www.w3.org/2000/svg"
   xmlns:svg="http://www.w3.org/2000/svg"
   xmlns:rdf="http://www.w3.org/1999/02/22-rdf-syntax-ns#"
   xmlns:cc="http://creativecommons.org/ns#"
   xmlns:dc="http://purl.org/dc/elements/1.1/">
  <sodipodi:namedview
     id="namedview47"
     pagecolor="#ffffff"
     bordercolor="#666666"
     borderopacity="1.0"
     inkscape:pageshadow="2"
     inkscape:pageopacity="0.0"
     inkscape:pagecheckerboard="0"
     showgrid="false"
     fit-margin-top="0"
     fit-margin-left="0"
     fit-margin-right="0"
     fit-margin-bottom="0"
     inkscape:zoom="3.2552166"
     inkscape:cx="67.430229"
     inkscape:cy="22.732742"
     inkscape:window-width="878"
     inkscape:window-height="1179"
     inkscape:window-x="0"
     inkscape:window-y="19"
     inkscape:window-maximized="1"
     inkscape:current-layer="Layer_1" />
  <defs
     id="defs4">
    <style
       id="style2">.cls-1{fill:#9d9d9b;}.cls-1,.cls-3{fill-rule:evenodd;}.cls-2,.cls-3{fill:#005db9;}</style>
  </defs>
  <title
     id="title6">Tekengebied 2</title>
  <polygon
     class="cls-2"
     points="33.35,0.61 67.31,0.61 67.3,7.88 56.27,7.88 56.27,29.75 44.45,29.75 44.45,7.82 44.45,7.88 33.35,7.88 "
     id="polygon38"
     transform="translate(-2.34,0.11)" />
  <path
     class="cls-3"
     d="m 18.72,10.24 -3.54,9.56 h 7.1 z M 38.5,29.86 H 26.17 l -1.38,-3 H 12.66 l -1.32,3 H 0 L 12.25,0.72 h 13 z"
     id="path40" />
  <path
     class="cls-2"
     d="m 136.66,7.98 a 11.62,11.62 0 0 1 0.77,2.48 h -13.77 c -1.61,-2.78 -4.28,-3.55 -7.8,-3.51 a 7.75,7.75 0 0 0 -5.72,2.68 c -2.64,3.31 -2.28,8.39 0.18,11.62 2.46,3.23 6.41,3.29 9.85,2.68 2.17,-0.17 4.28,-2.12 5.15,-4.14 H 120 v -6 h 17.66 v 16 H 132 l -1.45,-2 c -8,4 -21.13,3.56 -27.54,0.33 A 12.92,12.92 0 0 1 96.25,17.94 c -0.38,-5.75 1,-12.28 6.86,-15.27 5.91,-3.94 19,-2.8 25.13,-1.14 3.93,1.21 6.86,3.15 8.42,6.45 z"
     id="path42" />
  <path
     class="cls-3"
     d="m 77.87,10.26 -3.54,9.56 h 7.1 z M 97.58,29.85 H 85.24 l -1.3,-3 H 71.83 l -1.22,3 H 59.24 L 71.39,0.75 h 13 z"
     id="path44" />
  <metadata
     id="metadata129">
    <rdf:RDF>
      <cc:Work
         rdf:about="">
        <dc:title>Tekengebied 2</dc:title>
      </cc:Work>
    </rdf:RDF>
  </metadata>
</svg>
