<?xml version="1.0" encoding="UTF-8" standalone="no"?>
<svg
   width="186"
   height="13.42"
   viewBox="0 0 186 13.42"
   version="1.1"
   id="svg848"
   sodipodi:docname="intergas.svg"
   inkscape:version="1.1 (c4e8f9ed74, 2021-05-24)"
   xmlns:inkscape="http://www.inkscape.org/namespaces/inkscape"
   xmlns:sodipodi="http://sodipodi.sourceforge.net/DTD/sodipodi-0.dtd"
   xmlns="http://www.w3.org/2000/svg"
   xmlns:svg="http://www.w3.org/2000/svg">
  <sodipodi:namedview
     id="namedview850"
     pagecolor="#ffffff"
     bordercolor="#666666"
     borderopacity="1.0"
     inkscape:pageshadow="2"
     inkscape:pageopacity="0.0"
     inkscape:pagecheckerboard="0"
     showgrid="false"
     inkscape:zoom="6.9570183"
     inkscape:cx="92.999611"
     inkscape:cy="6.7557677"
     inkscape:window-width="2558"
     inkscape:window-height="1419"
     inkscape:window-x="0"
     inkscape:window-y="19"
     inkscape:window-maximized="1"
     inkscape:current-layer="svg848" />
  <defs
     id="defs842">
    <style
       id="style840">.a{fill:#fff}</style>
  </defs>
  <path
     class="a"
     d="M121.9.68c-6.8 0-10.2 2.2-10.2 6.54s2.85 6.15 9.53 6.15h8.93V6.56h-6V10h-1.19c-2.64 0-4.1-1-4.1-2.7 0-2 1.7-2.91 5.29-2.91h6V.69zM23.79.81h-7.53v12.4h7V7l5.54 6.2h6.54V.81h-7.02v5.83zM0 .81h7.5v12.4H0zm66.07 12.41h15.28v-2.61h-7.99V8.72h7.99V6.15h-7.99V4.08h7.99V.81H66.07v12.41zm-19.05 0h7.48V5.53h4.58V.81H42.44v4.72h4.58v7.69zm60.56 0L102.6 8h.4c2.06 0 3.84-1 3.84-3.18s-1.93-3.94-5-3.94H89.06v12.34h6.83V8.71l3.73 4.51zM97.18 6h-1.47V3.36h1.61c1.37 0 2.5.09 2.5 1.23S98.56 6 97.18 6zm54.64-5h-11.73l-4.77 12.34h7.5l.63-1.58h5.1l.6 1.58h7.53zm-7.58 7.73L146 4.19l1.7 4.56zM183.73 0A2 2 0 10186 2a2.13 2.13 0 00-2.25-2zm0 3.63a1.9 1.9 0 11.06 0h-.06z"
     id="path844"
     style="fill:#000000" />
  <path
     class="a"
     d="M184.65 2.57a.6.6 0 00-.41-.49c.27-.08.46-.25.46-.47a.54.54 0 00-.21-.44 1.49 1.49 0 00-.77-.14 4.9 4.9 0 00-.85.06v2h.51v-.84h.25c.28 0 .42.1.46.32a1.62 1.62 0 00.18.49h.55a1.45 1.45 0 01-.17-.49zm-1-.64h-.25v-.57h.28c.32 0 .48.12.48.31s-.24.26-.52.26zm-11.9 1.73c-.65 0-1.88 0-1.87.85s1.06.85 1.91.85c2.35.1 3.64.05 5 .74a3.49 3.49 0 012.12 3 4 4 0 01-2 3.34c-1.42.94-4.17 1-7.4 1-2.55 0-4.52.05-7.07 0V9.78h5.71c1.12 0 2.63.1 2.59-.89s-.89-.89-2.65-.89c-2.66-.09-3.79-.28-4.74-.85a3.16 3.16 0 01.52-5.77c1.52-.72 3.87-.85 6.8-.85h7v3.08z"
     id="path846"
     style="fill:#000000" />
</svg>
