<?xml version="1.0" encoding="UTF-8" standalone="no"?>
<!-- Created with Inkscape (http://www.inkscape.org/) -->

<svg
   width="55.454197mm"
   height="21.507097mm"
   viewBox="0 0 55.454197 21.507097"
   version="1.1"
   id="svg35009"
   inkscape:version="1.1 (c4e8f9ed74, 2021-05-24)"
   sodipodi:docname="nefit.svg"
   xmlns:inkscape="http://www.inkscape.org/namespaces/inkscape"
   xmlns:sodipodi="http://sodipodi.sourceforge.net/DTD/sodipodi-0.dtd"
   xmlns="http://www.w3.org/2000/svg"
   xmlns:svg="http://www.w3.org/2000/svg">
  <sodipodi:namedview
     id="namedview35011"
     pagecolor="#ffffff"
     bordercolor="#666666"
     borderopacity="1.0"
     inkscape:pageshadow="2"
     inkscape:pageopacity="0.0"
     inkscape:pagecheckerboard="0"
     inkscape:document-units="mm"
     showgrid="false"
     fit-margin-top="0"
     fit-margin-left="0"
     fit-margin-right="0"
     fit-margin-bottom="0"
     inkscape:zoom="0.67081229"
     inkscape:cx="300.38209"
     inkscape:cy="490.45017"
     inkscape:window-width="878"
     inkscape:window-height="1179"
     inkscape:window-x="0"
     inkscape:window-y="19"
     inkscape:window-maximized="1"
     inkscape:current-layer="layer1" />
  <defs
     id="defs35006">
    <clipPath
       clipPathUnits="userSpaceOnUse"
       id="clipPath6159">
      <path
         d="m 40.819,216 h 157.193 v 60.965 H 40.819 Z"
         id="path6157" />
    </clipPath>
    <clipPath
       clipPathUnits="userSpaceOnUse"
       id="clipPath6175">
      <path
         d="m 40.819,216 h 157.193 v 60.965 H 40.819 Z"
         id="path6173" />
    </clipPath>
    <clipPath
       clipPathUnits="userSpaceOnUse"
       id="clipPath6191">
      <path
         d="m 40.819,216 h 157.193 v 60.965 H 40.819 Z"
         id="path6189" />
    </clipPath>
    <clipPath
       clipPathUnits="userSpaceOnUse"
       id="clipPath6205">
      <path
         d="m 40.819,216 h 157.193 v 60.965 H 40.819 Z"
         id="path6203" />
    </clipPath>
    <clipPath
       clipPathUnits="userSpaceOnUse"
       id="clipPath6219">
      <path
         d="m 40.819,216 h 157.193 v 60.965 H 40.819 Z"
         id="path6217" />
    </clipPath>
    <clipPath
       clipPathUnits="userSpaceOnUse"
       id="clipPath6231">
      <path
         d="m 40.819,216 h 157.194 v 60.965 H 40.819 Z"
         id="path6229" />
    </clipPath>
    <clipPath
       clipPathUnits="userSpaceOnUse"
       id="clipPath6251">
      <path
         d="m 40.819,216 h 157.193 v 60.965 H 40.819 Z"
         id="path6249" />
    </clipPath>
    <clipPath
       clipPathUnits="userSpaceOnUse"
       id="clipPath6263">
      <path
         d="m 40.819,216 h 157.194 v 60.965 H 40.819 Z"
         id="path6261" />
    </clipPath>
    <clipPath
       clipPathUnits="userSpaceOnUse"
       id="clipPath6275">
      <path
         d="m 40.819,216 h 157.193 v 60.965 H 40.819 Z"
         id="path6273" />
    </clipPath>
    <clipPath
       clipPathUnits="userSpaceOnUse"
       id="clipPath6287">
      <path
         d="m 40.819,216 h 157.194 v 60.965 H 40.819 Z"
         id="path6285" />
    </clipPath>
    <clipPath
       clipPathUnits="userSpaceOnUse"
       id="clipPath6311">
      <path
         d="m 40.819,216 h 157.193 v 60.965 H 40.819 Z"
         id="path6309" />
    </clipPath>
    <clipPath
       clipPathUnits="userSpaceOnUse"
       id="clipPath6323">
      <path
         d="m 40.819,216 h 157.194 v 60.965 H 40.819 Z"
         id="path6321" />
    </clipPath>
    <clipPath
       clipPathUnits="userSpaceOnUse"
       id="clipPath6333">
      <path
         d="m 40.819,216 h 157.193 v 60.965 H 40.819 Z"
         id="path6331" />
    </clipPath>
    <clipPath
       clipPathUnits="userSpaceOnUse"
       id="clipPath6343">
      <path
         d="m 40.819,216 h 157.194 v 60.965 H 40.819 Z"
         id="path6341" />
    </clipPath>
    <clipPath
       clipPathUnits="userSpaceOnUse"
       id="clipPath6415">
      <path
         d="m 40.819,216 h 157.193 v 60.965 H 40.819 Z"
         id="path6413" />
    </clipPath>
    <clipPath
       clipPathUnits="userSpaceOnUse"
       id="clipPath6427">
      <path
         d="m 40.819,216 h 157.194 v 60.965 H 40.819 Z"
         id="path6425" />
    </clipPath>
    <clipPath
       clipPathUnits="userSpaceOnUse"
       id="clipPath6437">
      <path
         d="m 40.819,216 h 157.193 v 60.965 H 40.819 Z"
         id="path6435" />
    </clipPath>
    <clipPath
       clipPathUnits="userSpaceOnUse"
       id="clipPath6447">
      <path
         d="m 40.819,216 h 157.194 v 60.965 H 40.819 Z"
         id="path6445" />
    </clipPath>
  </defs>
  <g
     inkscape:label="Layer 1"
     inkscape:groupmode="layer"
     id="layer1"
     transform="translate(-25.519914,-18.433695)">
    <g
       id="g6149"
       transform="matrix(0.35277777,0,0,-0.35277777,32.644155,30.387856)">
      <path
         d="M 0,0 V -18.373 L -10.076,0 h -10.105 v -27.056 h 7.149 V -8.568 L -2.657,-27.056 H 7.192 V 0 Z"
         style="fill:#000000;fill-opacity:1;fill-rule:nonzero;stroke:none"
         id="path6151" />
    </g>
    <g
       id="g6153"
       transform="matrix(0.35277777,0,0,-0.35277777,11.119878,116.14079)">
      <g
         id="g6155"
         clip-path="url(#clipPath6159)">
        <g
           id="g6161"
           transform="translate(40.8327,243.0789)">
          <path
             d="M 0,0 H 10.105 L 20.181,-18.373 V 0 h 7.192 V -27.056 H 17.524 L 7.149,-8.568 V -27.056 H 0 Z"
             style="fill:none;stroke:#000000;stroke-width:0.028;stroke-linecap:butt;stroke-linejoin:miter;stroke-miterlimit:4;stroke-dasharray:none;stroke-opacity:1"
             id="path6163" />
        </g>
      </g>
    </g>
    <g
       id="g6165"
       transform="matrix(0.35277777,0,0,-0.35277777,37.10376,30.387856)">
      <path
         d="m 0,0 v -27.056 h 21.446 v 5.116 H 7.931 v 6.124 h 12.321 v 5.117 H 7.931 v 5.582 H 20.977 V 0 Z"
         style="fill:#000000;fill-opacity:1;fill-rule:nonzero;stroke:none"
         id="path6167" />
    </g>
    <g
       id="g6169"
       transform="matrix(0.35277777,0,0,-0.35277777,11.119878,116.14079)">
      <g
         id="g6171"
         clip-path="url(#clipPath6175)">
        <g
           id="g6177"
           transform="translate(73.655,243.0789)">
          <path
             d="M 0,0 H 20.977 V -5.117 H 7.931 v -5.582 h 12.321 v -5.117 H 7.931 v -6.124 h 13.515 v -5.116 H 0 Z"
             style="fill:none;stroke:#000000;stroke-width:0.028;stroke-linecap:butt;stroke-linejoin:miter;stroke-miterlimit:4;stroke-dasharray:none;stroke-opacity:1"
             id="path6179" />
        </g>
      </g>
    </g>
    <g
       id="g6181"
       transform="matrix(0.35277777,0,0,-0.35277777,45.868982,30.387856)">
      <path
         d="m 0,0 v -27.056 h 7.93 v 11.24 H 19.4 v 5.117 H 7.93 v 5.582 H 19.911 V 0 Z"
         style="fill:#000000;fill-opacity:1;fill-rule:nonzero;stroke:none"
         id="path6183" />
    </g>
    <g
       id="g6185"
       transform="matrix(0.35277777,0,0,-0.35277777,11.119878,116.14079)">
      <g
         id="g6187"
         clip-path="url(#clipPath6191)">
        <g
           id="g6193"
           transform="translate(98.5012,243.0789)">
          <path
             d="M 0,0 H 19.911 V -5.117 H 7.93 v -5.582 h 11.469 v -5.117 H 7.93 v -11.24 H 0 Z"
             style="fill:none;stroke:#000000;stroke-width:0.028;stroke-linecap:butt;stroke-linejoin:miter;stroke-miterlimit:4;stroke-dasharray:none;stroke-opacity:1"
             id="path6195" />
        </g>
      </g>
    </g>
    <path
       d="m 54.140069,39.932682 h 2.79788 v -9.544755 h -2.79788 z"
       style="fill:#000000;fill-opacity:1;fill-rule:nonzero;stroke:none;stroke-width:0.352778"
       id="path6197" />
    <g
       id="g6199"
       transform="matrix(0.35277777,0,0,-0.35277777,11.119878,116.14079)">
      <g
         id="g6201"
         clip-path="url(#clipPath6205)">
        <path
           d="m 121.947,243.079 h 7.931 v -27.056 h -7.931 z"
           style="fill:none;stroke:#000000;stroke-width:0.028;stroke-linecap:butt;stroke-linejoin:miter;stroke-miterlimit:4;stroke-dasharray:none;stroke-opacity:1"
           id="path6207" />
      </g>
    </g>
    <g
       id="g6209"
       transform="matrix(0.35277777,0,0,-0.35277777,58.245767,30.387856)">
      <path
         d="m 0,0 v -5.35 h 7.334 v -21.706 h 7.929 V -5.35 h 7.335 V 0 Z"
         style="fill:#000000;fill-opacity:1;fill-rule:nonzero;stroke:none"
         id="path6211" />
    </g>
    <g
       id="g6213"
       transform="matrix(0.35277777,0,0,-0.35277777,11.119878,116.14079)">
      <g
         id="g6215"
         clip-path="url(#clipPath6219)">
        <g
           id="g6221"
           transform="translate(140.9193,237.73)">
          <path
             d="M 0,0 H -7.334 V 5.349 H 15.264 V 0 H 7.929 V -21.707 H 0 Z"
             style="fill:none;stroke:#000000;stroke-width:0.028;stroke-linecap:butt;stroke-linejoin:miter;stroke-miterlimit:4;stroke-dasharray:none;stroke-opacity:1"
             id="path6223" />
        </g>
      </g>
    </g>
    <g
       id="g6225"
       transform="matrix(0.35277777,0,0,-0.35277777,11.119878,116.14079)">
      <g
         id="g6227"
         clip-path="url(#clipPath6231)">
        <g
           id="g6233"
           transform="translate(174.8286,243.0627)">
          <path
             d="M 0,0 V -1.346 L 12.668,-1.337 12.66,0.008 C 12.66,0.008 0.016,0 0,0"
             style="fill:#000000;fill-opacity:1;fill-rule:nonzero;stroke:none"
             id="path6235" />
        </g>
        <g
           id="g6237"
           transform="translate(174.8286,243.0627)">
          <path
             d="M 0,0 V -1.346 L 12.668,-1.337 12.66,0.008 C 12.66,0.008 0.016,0 0,0 Z"
             style="fill:none;stroke:#000000;stroke-width:0.028;stroke-linecap:butt;stroke-linejoin:miter;stroke-miterlimit:4;stroke-dasharray:none;stroke-opacity:1"
             id="path6239" />
        </g>
        <g
           id="g6241"
           transform="translate(163.9901,243.0627)">
          <path
             d="m 0,0 v -27.048 l 27.048,0.009 -0.01,19.415 -1.343,-0.008 0.008,-18.063 L 1.344,-25.705 1.336,-1.346 5.398,-1.337 5.39,0.008 C 5.39,0.008 0.016,0 0,0"
             style="fill:#000000;fill-opacity:1;fill-rule:nonzero;stroke:none"
             id="path6243" />
        </g>
      </g>
    </g>
    <g
       id="g6245"
       transform="matrix(0.35277777,0,0,-0.35277777,11.119878,116.14079)">
      <g
         id="g6247"
         clip-path="url(#clipPath6251)">
        <g
           id="g6253"
           transform="translate(163.9901,243.0627)">
          <path
             d="m 0,0 v -27.048 l 27.048,0.009 -0.01,19.415 -1.343,-0.008 0.008,-18.063 L 1.344,-25.705 1.336,-1.346 5.398,-1.337 5.39,0.008 C 5.39,0.008 0.016,0 0,0 Z"
             style="fill:none;stroke:#000000;stroke-width:0.028;stroke-linecap:butt;stroke-linejoin:miter;stroke-miterlimit:4;stroke-dasharray:none;stroke-opacity:1"
             id="path6255" />
        </g>
      </g>
    </g>
    <g
       id="g6257"
       transform="matrix(0.35277777,0,0,-0.35277777,11.119878,116.14079)">
      <g
         id="g6259"
         clip-path="url(#clipPath6263)">
        <g
           id="g6265"
           transform="translate(163.9978,243.0535)">
          <path
             d="M 0,0 H 5.374 V -1.319 H 1.336 1.319 v -0.018 -24.349 -0.018 h 0.017 24.351 0.017 v 0.018 18.054 h 1.319 V -27.023 H 0 Z M 5.39,0.017 H -0.017 V -27.04 H 27.04 V -7.615 H 25.687 V -25.686 H 1.336 V -1.337 H 5.39 v 0.018 z M 10.84,0 H 23.482 V -1.319 H 10.84 Z M 23.499,0.017 H 10.822 v -1.354 h 12.677 v 0.018 z"
             style="fill:#000000;fill-opacity:1;fill-rule:nonzero;stroke:none"
             id="path6267" />
        </g>
      </g>
    </g>
    <g
       id="g6269"
       transform="matrix(0.35277777,0,0,-0.35277777,11.119878,116.14079)">
      <g
         id="g6271"
         clip-path="url(#clipPath6275)">
        <g
           id="g6277"
           transform="translate(163.9978,243.0535)">
          <path
             d="M 0,0 H 5.374 V -1.319 H 1.336 1.319 v -0.018 -24.349 -0.018 h 0.017 24.351 0.017 v 0.018 18.054 h 1.319 V -27.023 H 0 Z M 5.39,0.017 H -0.017 V -27.04 H 27.04 V -7.615 H 25.687 V -25.686 H 1.336 V -1.337 H 5.39 v 0.018 z M 10.84,0 H 23.482 V -1.319 H 10.84 Z M 23.499,0.017 H 10.822 v -1.354 h 12.677 v 0.018 z"
             style="fill:none;stroke:#000000;stroke-width:0.028;stroke-linecap:butt;stroke-linejoin:miter;stroke-miterlimit:4;stroke-dasharray:none;stroke-opacity:1"
             id="path6279" />
        </g>
      </g>
    </g>
    <g
       id="g6281"
       transform="matrix(0.35277777,0,0,-0.35277777,11.119878,116.14079)">
      <g
         id="g6283"
         clip-path="url(#clipPath6287)">
        <g
           id="g6289"
           transform="translate(192.5642,259.3246)">
          <path
             d="M 0,0 V -18.255 L 1.88,-18.246 1.873,0.008 C 1.873,0.008 0.015,0 0,0"
             style="fill:#e30613;fill-opacity:1;fill-rule:nonzero;stroke:none"
             id="path6291" />
        </g>
        <g
           id="g6293"
           transform="translate(192.5642,259.3246)">
          <path
             d="M 0,0 V -18.255 L 1.88,-18.246 1.873,0.008 C 1.873,0.008 0.015,0 0,0 Z"
             style="fill:none;stroke:#e30613;stroke-width:0.027;stroke-linecap:butt;stroke-linejoin:miter;stroke-miterlimit:4;stroke-dasharray:none;stroke-opacity:1"
             id="path6295" />
        </g>
        <path
           d="m 192.572,259.316 h 1.856 v -18.229 h -1.856 z m 1.872,0.017 h -1.888 V 241.07 h 1.888 v 0.017 z"
           style="fill:#e30613;fill-opacity:1;fill-rule:nonzero;stroke:none"
           id="path6297" />
        <path
           d="m 192.572,259.316 h 1.856 v -18.229 h -1.856 z m 1.872,0.017 h -1.888 V 241.07 h 1.888 v 0.017 z"
           style="fill:none;stroke:#e30613;stroke-width:0.027;stroke-linecap:butt;stroke-linejoin:miter;stroke-miterlimit:4;stroke-dasharray:none;stroke-opacity:1"
           id="path6299" />
        <g
           id="g6301"
           transform="translate(196.119,252.6131)">
          <path
             d="m 0,0 v -7.771 l 1.88,0.009 -0.008,7.77 C 1.872,0.008 0.016,0 0,0"
             style="fill:#e30613;fill-opacity:1;fill-rule:nonzero;stroke:none"
             id="path6303" />
        </g>
      </g>
    </g>
    <g
       id="g6305"
       transform="matrix(0.35277777,0,0,-0.35277777,11.119878,116.14079)">
      <g
         id="g6307"
         clip-path="url(#clipPath6311)">
        <g
           id="g6313"
           transform="translate(196.119,252.6131)">
          <path
             d="m 0,0 v -7.771 l 1.88,0.009 -0.008,7.77 C 1.872,0.008 0.016,0 0,0 Z"
             style="fill:none;stroke:#e30613;stroke-width:0.027;stroke-linecap:butt;stroke-linejoin:miter;stroke-miterlimit:4;stroke-dasharray:none;stroke-opacity:1"
             id="path6315" />
        </g>
      </g>
    </g>
    <g
       id="g6317"
       transform="matrix(0.35277777,0,0,-0.35277777,11.119878,116.14079)">
      <g
         id="g6319"
         clip-path="url(#clipPath6323)">
        <path
           d="m 196.127,252.604 h 1.856 v -7.745 h -1.856 z m 1.872,0.017 h -1.888 v -7.778 h 1.888 v 0.016 z"
           style="fill:#e30613;fill-opacity:1;fill-rule:nonzero;stroke:none"
           id="path6325" />
      </g>
    </g>
    <g
       id="g6327"
       transform="matrix(0.35277777,0,0,-0.35277777,11.119878,116.14079)">
      <g
         id="g6329"
         clip-path="url(#clipPath6333)">
        <path
           d="m 196.127,252.604 h 1.856 v -7.745 h -1.856 z m 1.872,0.017 h -1.888 v -7.778 h 1.888 v 0.016 z"
           style="fill:none;stroke:#e30613;stroke-width:0.027;stroke-linecap:butt;stroke-linejoin:miter;stroke-miterlimit:4;stroke-dasharray:none;stroke-opacity:1"
           id="path6335" />
      </g>
    </g>
    <g
       id="g6337"
       transform="matrix(0.35277777,0,0,-0.35277777,11.119878,116.14079)">
      <g
         id="g6339"
         clip-path="url(#clipPath6343)">
        <g
           id="g6345"
           transform="translate(174.7892,252.5752)">
          <path
             d="m 0,0 v -7.77 l 1.88,0.009 -0.007,7.77 C 1.873,0.009 0.016,0 0,0"
             style="fill:#e30613;fill-opacity:1;fill-rule:nonzero;stroke:none"
             id="path6347" />
        </g>
        <g
           id="g6349"
           transform="translate(174.7892,252.5752)">
          <path
             d="m 0,0 v -7.77 l 1.88,0.009 -0.007,7.77 C 1.873,0.009 0.016,0 0,0 Z"
             style="fill:none;stroke:#e30613;stroke-width:0.027;stroke-linecap:butt;stroke-linejoin:miter;stroke-miterlimit:4;stroke-dasharray:none;stroke-opacity:1"
             id="path6351" />
        </g>
        <path
           d="m 174.797,252.568 h 1.857 v -7.747 h -1.857 z m 1.873,0.016 h -1.888 v -7.779 h 1.888 v 0.016 z"
           style="fill:#e30613;fill-opacity:1;fill-rule:nonzero;stroke:none"
           id="path6353" />
        <path
           d="m 174.797,252.568 h 1.857 v -7.747 h -1.857 z m 1.873,0.016 h -1.888 v -7.779 h 1.888 v 0.016 z"
           style="fill:none;stroke:#e30613;stroke-width:0.027;stroke-linecap:butt;stroke-linejoin:miter;stroke-miterlimit:4;stroke-dasharray:none;stroke-opacity:1"
           id="path6355" />
        <g
           id="g6357"
           transform="translate(174.7892,238.5891)">
          <path
             d="M 0,0 V -8.244 L 1.88,-8.235 1.873,0.009 C 1.873,0.009 0.016,0 0,0"
             style="fill:#e30613;fill-opacity:1;fill-rule:nonzero;stroke:none"
             id="path6359" />
        </g>
        <g
           id="g6361"
           transform="translate(174.7892,238.5891)">
          <path
             d="M 0,0 V -8.244 L 1.88,-8.235 1.873,0.009 C 1.873,0.009 0.016,0 0,0 Z"
             style="fill:none;stroke:#e30613;stroke-width:0.027;stroke-linecap:butt;stroke-linejoin:miter;stroke-miterlimit:4;stroke-dasharray:none;stroke-opacity:1"
             id="path6363" />
        </g>
        <path
           d="m 174.797,238.581 h 1.857 v -8.219 h -1.857 z m 1.873,0.017 h -1.888 v -8.253 h 1.888 v 0.018 z"
           style="fill:#e30613;fill-opacity:1;fill-rule:nonzero;stroke:none"
           id="path6365" />
        <path
           d="m 174.797,238.581 h 1.857 v -8.219 h -1.857 z m 1.873,0.017 h -1.888 v -8.253 h 1.888 v 0.018 z"
           style="fill:none;stroke:#e30613;stroke-width:0.027;stroke-linecap:butt;stroke-linejoin:miter;stroke-miterlimit:4;stroke-dasharray:none;stroke-opacity:1"
           id="path6367" />
        <g
           id="g6369"
           transform="translate(181.9038,273.1265)">
          <path
             d="M 0,0 V -7.769 L 1.876,-7.762 1.868,0.009 C 1.868,0.009 0.015,0.001 0,0"
             style="fill:#e30613;fill-opacity:1;fill-rule:nonzero;stroke:none"
             id="path6371" />
        </g>
        <g
           id="g6373"
           transform="translate(181.9038,273.1265)">
          <path
             d="M 0,0 V -7.769 L 1.876,-7.762 1.868,0.009 C 1.868,0.009 0.015,0.001 0,0 Z"
             style="fill:none;stroke:#e30613;stroke-width:0.027;stroke-linecap:butt;stroke-linejoin:miter;stroke-miterlimit:4;stroke-dasharray:none;stroke-opacity:1"
             id="path6375" />
        </g>
        <path
           d="m 181.912,273.118 h 1.853 v -7.745 h -1.853 z m 1.868,0.017 h -1.885 v -7.778 h 1.885 v 0.016 z"
           style="fill:#e30613;fill-opacity:1;fill-rule:nonzero;stroke:none"
           id="path6377" />
        <path
           d="m 181.912,273.118 h 1.853 v -7.745 h -1.853 z m 1.868,0.017 h -1.885 v -7.778 h 1.885 v 0.016 z"
           style="fill:none;stroke:#e30613;stroke-width:0.027;stroke-linecap:butt;stroke-linejoin:miter;stroke-miterlimit:4;stroke-dasharray:none;stroke-opacity:1"
           id="path6379" />
        <g
           id="g6381"
           transform="translate(181.9038,262.6411)">
          <path
             d="M 0,0 V -6.756 L 1.876,-6.748 1.868,0.008 C 1.868,0.008 0.015,0 0,0"
             style="fill:#e30613;fill-opacity:1;fill-rule:nonzero;stroke:none"
             id="path6383" />
        </g>
        <g
           id="g6385"
           transform="translate(181.9038,262.6411)">
          <path
             d="M 0,0 V -6.756 L 1.876,-6.748 1.868,0.008 C 1.868,0.008 0.015,0 0,0 Z"
             style="fill:none;stroke:#e30613;stroke-width:0.027;stroke-linecap:butt;stroke-linejoin:miter;stroke-miterlimit:4;stroke-dasharray:none;stroke-opacity:1"
             id="path6387" />
        </g>
        <path
           d="m 181.912,262.632 h 1.853 v -6.73 h -1.853 z m 1.868,0.017 h -1.885 v -6.764 h 1.885 v 0.017 z"
           style="fill:#e30613;fill-opacity:1;fill-rule:nonzero;stroke:none"
           id="path6389" />
        <path
           d="m 181.912,262.632 h 1.853 v -6.73 h -1.853 z m 1.868,0.017 h -1.885 v -6.764 h 1.885 v 0.017 z"
           style="fill:none;stroke:#e30613;stroke-width:0.027;stroke-linecap:butt;stroke-linejoin:miter;stroke-miterlimit:4;stroke-dasharray:none;stroke-opacity:1"
           id="path6391" />
        <g
           id="g6393"
           transform="translate(181.8999,236.4428)">
          <path
             d="m 0,0 v -11.829 l 1.875,0.008 -0.007,11.83 C 1.868,0.009 0.016,0 0,0"
             style="fill:#e30613;fill-opacity:1;fill-rule:nonzero;stroke:none"
             id="path6395" />
        </g>
        <g
           id="g6397"
           transform="translate(181.8999,236.4428)">
          <path
             d="m 0,0 v -11.829 l 1.875,0.008 -0.007,11.83 C 1.868,0.009 0.016,0 0,0 Z"
             style="fill:none;stroke:#e30613;stroke-width:0.027;stroke-linecap:butt;stroke-linejoin:miter;stroke-miterlimit:4;stroke-dasharray:none;stroke-opacity:1"
             id="path6399" />
        </g>
        <path
           d="m 181.907,236.434 h 1.853 V 224.63 h -1.853 z m 1.868,0.017 h -1.883 v -11.837 h 1.883 v 0.016 z"
           style="fill:#e30613;fill-opacity:1;fill-rule:nonzero;stroke:none"
           id="path6401" />
        <path
           d="m 181.907,236.434 h 1.853 V 224.63 h -1.853 z m 1.868,0.017 h -1.883 v -11.837 h 1.883 v 0.016 z"
           style="fill:none;stroke:#e30613;stroke-width:0.027;stroke-linecap:butt;stroke-linejoin:miter;stroke-miterlimit:4;stroke-dasharray:none;stroke-opacity:1"
           id="path6403" />
        <g
           id="g6405"
           transform="translate(178.3457,276.9426)">
          <path
             d="M 0,0 V -5.401 L 1.879,-5.393 1.87,0.009 C 1.87,0.009 0.014,0.001 0,0"
             style="fill:#e30613;fill-opacity:1;fill-rule:nonzero;stroke:none"
             id="path6407" />
        </g>
      </g>
    </g>
    <g
       id="g6409"
       transform="matrix(0.35277777,0,0,-0.35277777,11.119878,116.14079)">
      <g
         id="g6411"
         clip-path="url(#clipPath6415)">
        <g
           id="g6417"
           transform="translate(178.3457,276.9426)">
          <path
             d="M 0,0 V -5.401 L 1.879,-5.393 1.87,0.009 C 1.87,0.009 0.014,0.001 0,0 Z"
             style="fill:none;stroke:#e30613;stroke-width:0.027;stroke-linecap:butt;stroke-linejoin:miter;stroke-miterlimit:4;stroke-dasharray:none;stroke-opacity:1"
             id="path6419" />
        </g>
      </g>
    </g>
    <g
       id="g6421"
       transform="matrix(0.35277777,0,0,-0.35277777,11.119878,116.14079)">
      <g
         id="g6423"
         clip-path="url(#clipPath6427)">
        <path
           d="m 178.353,276.936 h 1.855 v -5.378 h -1.855 z m 1.872,0.015 h -1.888 v -5.41 h 1.888 v 0.016 z"
           style="fill:#e30613;fill-opacity:1;fill-rule:nonzero;stroke:none"
           id="path6429" />
      </g>
    </g>
    <g
       id="g6431"
       transform="matrix(0.35277777,0,0,-0.35277777,11.119878,116.14079)">
      <g
         id="g6433"
         clip-path="url(#clipPath6437)">
        <path
           d="m 178.353,276.936 h 1.855 v -5.378 h -1.855 z m 1.872,0.015 h -1.888 v -5.41 h 1.888 v 0.016 z"
           style="fill:none;stroke:#e30613;stroke-width:0.027;stroke-linecap:butt;stroke-linejoin:miter;stroke-miterlimit:4;stroke-dasharray:none;stroke-opacity:1"
           id="path6439" />
      </g>
    </g>
    <g
       id="g6441"
       transform="matrix(0.35277777,0,0,-0.35277777,11.119878,116.14079)">
      <g
         id="g6443"
         clip-path="url(#clipPath6447)">
        <g
           id="g6449"
           transform="translate(178.3457,256.5675)">
          <path
             d="M 0,0 V -6.755 L 1.879,-6.747 1.87,0.009 C 1.87,0.009 0.014,0 0,0"
             style="fill:#e30613;fill-opacity:1;fill-rule:nonzero;stroke:none"
             id="path6451" />
        </g>
        <g
           id="g6453"
           transform="translate(178.3457,256.5675)">
          <path
             d="M 0,0 V -6.755 L 1.879,-6.747 1.87,0.009 C 1.87,0.009 0.014,0 0,0 Z"
             style="fill:none;stroke:#e30613;stroke-width:0.027;stroke-linecap:butt;stroke-linejoin:miter;stroke-miterlimit:4;stroke-dasharray:none;stroke-opacity:1"
             id="path6455" />
        </g>
        <path
           d="m 178.353,256.559 h 1.855 v -6.731 h -1.855 z m 1.872,0.018 h -1.888 v -6.765 h 1.888 v 0.016 z"
           style="fill:#e30613;fill-opacity:1;fill-rule:nonzero;stroke:none"
           id="path6457" />
        <path
           d="m 178.353,256.559 h 1.855 v -6.731 h -1.855 z m 1.872,0.018 h -1.888 v -6.765 h 1.888 v 0.016 z"
           style="fill:none;stroke:#e30613;stroke-width:0.027;stroke-linecap:butt;stroke-linejoin:miter;stroke-miterlimit:4;stroke-dasharray:none;stroke-opacity:1"
           id="path6459" />
        <g
           id="g6461"
           transform="translate(178.3457,233.5198)">
          <path
             d="M 0,0 V -5.403 L 1.879,-5.395 1.87,0.008 C 1.87,0.008 0.014,0 0,0"
             style="fill:#e30613;fill-opacity:1;fill-rule:nonzero;stroke:none"
             id="path6463" />
        </g>
        <g
           id="g6465"
           transform="translate(178.3457,233.5198)">
          <path
             d="M 0,0 V -5.403 L 1.879,-5.395 1.87,0.008 C 1.87,0.008 0.014,0 0,0 Z"
             style="fill:none;stroke:#e30613;stroke-width:0.027;stroke-linecap:butt;stroke-linejoin:miter;stroke-miterlimit:4;stroke-dasharray:none;stroke-opacity:1"
             id="path6467" />
        </g>
        <path
           d="m 178.353,233.511 h 1.855 v -5.378 h -1.855 z m 1.872,0.017 h -1.888 v -5.411 h 1.888 v 0.016 z"
           style="fill:#e30613;fill-opacity:1;fill-rule:nonzero;stroke:none"
           id="path6469" />
        <path
           d="m 178.353,233.511 h 1.855 v -5.378 h -1.855 z m 1.872,0.017 h -1.888 v -5.411 h 1.888 v 0.016 z"
           style="fill:none;stroke:#e30613;stroke-width:0.027;stroke-linecap:butt;stroke-linejoin:miter;stroke-miterlimit:4;stroke-dasharray:none;stroke-opacity:1"
           id="path6471" />
        <g
           id="g6473"
           transform="translate(185.4552,268.3932)">
          <path
             d="M 0,0 V -16.564 L 1.879,-16.555 1.871,0.009 C 1.871,0.009 0.016,0.001 0,0"
             style="fill:#e30613;fill-opacity:1;fill-rule:nonzero;stroke:none"
             id="path6475" />
        </g>
        <g
           id="g6477"
           transform="translate(185.4552,268.3932)">
          <path
             d="M 0,0 V -16.564 L 1.879,-16.555 1.871,0.009 C 1.871,0.009 0.016,0.001 0,0 Z"
             style="fill:none;stroke:#e30613;stroke-width:0.027;stroke-linecap:butt;stroke-linejoin:miter;stroke-miterlimit:4;stroke-dasharray:none;stroke-opacity:1"
             id="path6479" />
        </g>
        <path
           d="m 185.462,268.386 h 1.857 v -16.539 h -1.857 z m 1.872,0.016 h -1.887 v -16.573 h 1.887 v 0.017 z"
           style="fill:#e30613;fill-opacity:1;fill-rule:nonzero;stroke:none"
           id="path6481" />
        <path
           d="m 185.462,268.386 h 1.857 v -16.539 h -1.857 z m 1.872,0.016 h -1.887 v -16.573 h 1.887 v 0.017 z"
           style="fill:none;stroke:#e30613;stroke-width:0.027;stroke-linecap:butt;stroke-linejoin:miter;stroke-miterlimit:4;stroke-dasharray:none;stroke-opacity:1"
           id="path6483" />
        <g
           id="g6485"
           transform="translate(185.4552,238.6362)">
          <path
             d="M 0,0 V -6.757 L 1.879,-6.748 1.871,0.007 C 1.871,0.007 0.016,0 0,0"
             style="fill:#e30613;fill-opacity:1;fill-rule:nonzero;stroke:none"
             id="path6487" />
        </g>
        <g
           id="g6489"
           transform="translate(185.4552,238.6362)">
          <path
             d="M 0,0 V -6.757 L 1.879,-6.748 1.871,0.007 C 1.871,0.007 0.016,0 0,0 Z"
             style="fill:none;stroke:#e30613;stroke-width:0.027;stroke-linecap:butt;stroke-linejoin:miter;stroke-miterlimit:4;stroke-dasharray:none;stroke-opacity:1"
             id="path6491" />
        </g>
        <path
           d="m 185.462,238.628 h 1.857 v -6.731 h -1.857 z m 1.872,0.015 h -1.887 v -6.764 h 1.887 v 0.018 z"
           style="fill:#e30613;fill-opacity:1;fill-rule:nonzero;stroke:none"
           id="path6493" />
        <path
           d="m 185.462,238.628 h 1.857 v -6.731 h -1.857 z m 1.872,0.015 h -1.887 v -6.764 h 1.887 v 0.018 z"
           style="fill:none;stroke:#e30613;stroke-width:0.027;stroke-linecap:butt;stroke-linejoin:miter;stroke-miterlimit:4;stroke-dasharray:none;stroke-opacity:1"
           id="path6495" />
        <g
           id="g6497"
           transform="translate(171.1074,248.5005)">
          <path
             d="M 0,0 V -12.844 L 1.88,-12.835 1.872,0.009 C 1.872,0.009 0.016,0 0,0"
             style="fill:#e30613;fill-opacity:1;fill-rule:nonzero;stroke:none"
             id="path6499" />
        </g>
        <g
           id="g6501"
           transform="translate(171.1074,248.5005)">
          <path
             d="M 0,0 V -12.844 L 1.88,-12.835 1.872,0.009 C 1.872,0.009 0.016,0 0,0 Z"
             style="fill:none;stroke:#e30613;stroke-width:0.027;stroke-linecap:butt;stroke-linejoin:miter;stroke-miterlimit:4;stroke-dasharray:none;stroke-opacity:1"
             id="path6503" />
        </g>
        <path
           d="m 171.116,248.493 h 1.856 v -12.819 h -1.856 z m 1.872,0.016 H 171.1 v -12.852 h 1.888 v 0.017 z"
           style="fill:#e30613;fill-opacity:1;fill-rule:nonzero;stroke:none"
           id="path6505" />
        <path
           d="m 171.116,248.493 h 1.856 v -12.819 h -1.856 z m 1.872,0.016 H 171.1 v -12.852 h 1.888 v 0.017 z"
           style="fill:none;stroke:#e30613;stroke-width:0.027;stroke-linecap:butt;stroke-linejoin:miter;stroke-miterlimit:4;stroke-dasharray:none;stroke-opacity:1"
           id="path6507" />
        <g
           id="g6509"
           transform="translate(189.01,264.4389)">
          <path
             d="M 0,0 V -16.563 L 1.879,-16.556 1.871,0.008 C 1.871,0.008 0.016,0 0,0"
             style="fill:#e30613;fill-opacity:1;fill-rule:nonzero;stroke:none"
             id="path6511" />
        </g>
        <g
           id="g6513"
           transform="translate(189.01,264.4389)">
          <path
             d="M 0,0 V -16.563 L 1.879,-16.556 1.871,0.008 C 1.871,0.008 0.016,0 0,0 Z"
             style="fill:none;stroke:#e30613;stroke-width:0.027;stroke-linecap:butt;stroke-linejoin:miter;stroke-miterlimit:4;stroke-dasharray:none;stroke-opacity:1"
             id="path6515" />
        </g>
        <path
           d="m 189.017,264.431 h 1.856 v -16.539 h -1.856 z m 1.872,0.015 h -1.888 v -16.57 h 1.888 v 0.016 z"
           style="fill:#e30613;fill-opacity:1;fill-rule:nonzero;stroke:none"
           id="path6517" />
        <path
           d="m 189.017,264.431 h 1.856 v -16.539 h -1.856 z m 1.872,0.015 h -1.888 v -16.57 h 1.888 v 0.016 z"
           style="fill:none;stroke:#e30613;stroke-width:0.027;stroke-linecap:butt;stroke-linejoin:miter;stroke-miterlimit:4;stroke-dasharray:none;stroke-opacity:1"
           id="path6519" />
        <g
           id="g6521"
           transform="translate(189.01,245.1656)">
          <path
             d="M 0,0 V -8.244 L 1.879,-8.235 1.871,0.009 C 1.871,0.009 0.016,0 0,0"
             style="fill:#e30613;fill-opacity:1;fill-rule:nonzero;stroke:none"
             id="path6523" />
        </g>
        <g
           id="g6525"
           transform="translate(189.01,245.1656)">
          <path
             d="M 0,0 V -8.244 L 1.879,-8.235 1.871,0.009 C 1.871,0.009 0.016,0 0,0 Z"
             style="fill:none;stroke:#e30613;stroke-width:0.027;stroke-linecap:butt;stroke-linejoin:miter;stroke-miterlimit:4;stroke-dasharray:none;stroke-opacity:1"
             id="path6527" />
        </g>
        <path
           d="m 189.017,245.158 h 1.856 v -8.219 h -1.856 z m 1.872,0.016 h -1.888 v -8.252 h 1.888 v 0.017 z"
           style="fill:#e30613;fill-opacity:1;fill-rule:nonzero;stroke:none"
           id="path6529" />
        <path
           d="m 189.017,245.158 h 1.856 v -8.219 h -1.856 z m 1.872,0.016 h -1.888 v -8.252 h 1.888 v 0.017 z"
           style="fill:none;stroke:#e30613;stroke-width:0.027;stroke-linecap:butt;stroke-linejoin:miter;stroke-miterlimit:4;stroke-dasharray:none;stroke-opacity:1"
           id="path6531" />
      </g>
    </g>
  </g>
</svg>
